<svg width="1920" height="1080" viewBox="0 0 1920 1080" fill="none" xmlns="http://www.w3.org/2000/svg">
    <g clip-path="url(#clip0_19_1753)">
        <rect width="1920" height="1080" fill="#AD7E64"/>
        <rect x="43" y="40" width="1833" height="1000" rx="30" fill="#7D4C48" fill-opacity="0.8"/>
        <ellipse cx="1112.5" cy="290" rx="235.5" ry="233" fill="#F19066"/>
        <path d="M1813 997C1830.12 997 1844 984.688 1844 969.5C1844 954.312 1830.12 942 1813 942C1795.88 942 1782 954.312 1782 969.5C1782 984.688 1795.88 997 1813 997Z" fill="#B49487"/>
        <ellipse cx="1456.5" cy="779" rx="349.5" ry="243" fill="#F19066"/>
        <ellipse cx="843.5" cy="777.5" rx="464.5" ry="219.5" fill="#90453E"/>
        <circle cx="1256.5" cy="976.5" r="32.5" fill="#FFB68D"/>
        <ellipse cx="569" cy="436" rx="460" ry="352" fill="#644B49" fill-opacity="0.9"/>
        <circle cx="336" cy="747" r="250" fill="#E77B72"/>
        <ellipse cx="1550.5" cy="358.5" rx="293.5" ry="294.5" fill="#D97F77"/>
        <circle cx="682.337" cy="101.337" r="20" transform="rotate(-0.973882 682.337 101.337)" fill="#FFB68D"/>
        <circle cx="159" cy="927" r="50" fill="#FFB68D"/>
        <circle cx="1015" cy="184" r="35" fill="#F19066"/>
        <circle cx="174" cy="678" r="25" fill="#F19066"/>
        <circle cx="1708" cy="321" r="35" fill="#F19066"/>
        <circle cx="1743" cy="134" r="50" fill="#FFB68D"/>
        <path d="M85.5 153C96.8218 153 106 144.493 106 134C106 123.507 96.8218 115 85.5 115C74.1782 115 65 123.507 65 134C65 144.493 74.1782 153 85.5 153Z" fill="#B49487"/>
        <path d="M199 356C220.539 356 238 340.778 238 322C238 303.222 220.539 288 199 288C177.461 288 160 303.222 160 322C160 340.778 177.461 356 199 356Z" fill="#B49487"/>
        <path d="M199 165C223.301 165 243 145.972 243 122.5C243 99.0278 223.301 80 199 80C174.699 80 155 99.0278 155 122.5C155 145.972 174.699 165 199 165Z" fill="#B49487"/>
        <path d="M1707.97 911.979C1730.6 911.979 1748.94 894.971 1748.94 873.99C1748.94 853.009 1730.6 836 1707.97 836C1685.34 836 1667 853.009 1667 873.99C1667 894.971 1685.34 911.979 1707.97 911.979Z" fill="#B49487"/>
        <path d="M272.969 256.979C295.595 256.979 313.938 239.971 313.938 218.99C313.938 198.009 295.595 181 272.969 181C250.342 181 232 198.009 232 218.99C232 239.971 250.342 256.979 272.969 256.979Z" fill="#B49487"/>
        <path d="M1715 774C1730.46 774 1743 761.912 1743 747C1743 732.088 1730.46 720 1715 720C1699.54 720 1687 732.088 1687 747C1687 761.912 1699.54 774 1715 774Z" fill="#B49487"/>
        <path d="M145 242C161.016 242 174 230.136 174 215.5C174 200.864 161.016 189 145 189C128.984 189 116 200.864 116 215.5C116 230.136 128.984 242 145 242Z" fill="#B49487"/>
        <path d="M1657.02 473.964V431.897C1657.02 427.925 1656.18 423.991 1654.54 420.322C1652.9 416.652 1650.5 413.318 1647.47 410.509C1644.44 407.701 1640.84 405.473 1636.88 403.953C1632.93 402.433 1628.69 401.65 1624.4 401.65H1534.21C1525.56 401.65 1517.26 398.464 1511.15 392.791C1505.03 387.119 1501.59 379.426 1501.59 371.404V329.337C1501.59 312.632 1541.13 299.091 1559.15 299.091H1562.78C1571.43 299.091 1579.73 295.904 1585.85 290.232C1591.97 284.56 1595.4 276.866 1595.4 268.845V226.777C1595.4 222.805 1594.56 218.872 1592.92 215.203C1591.28 211.533 1588.88 208.199 1585.85 205.39C1582.82 202.582 1579.22 200.354 1575.27 198.834C1571.31 197.314 1567.07 196.531 1562.78 196.531H460.735C456.451 196.531 452.21 197.314 448.252 198.834C444.295 200.354 440.699 202.582 437.67 205.39C434.641 208.199 432.239 211.533 430.6 215.203C428.96 218.872 428.117 222.805 428.117 226.777V268.845C428.117 272.817 428.96 276.75 430.6 280.419C432.239 284.089 434.641 287.423 437.67 290.232C440.699 293.04 444.295 295.268 448.252 296.788C452.21 298.308 456.451 299.091 460.735 299.091C469.386 299.091 477.682 302.277 483.799 307.95C489.916 313.622 493.353 321.315 493.353 329.337V371.404C493.353 379.426 489.916 387.119 483.799 392.791C477.682 398.464 469.386 401.65 460.735 401.65H334.598C330.314 401.65 326.073 402.433 322.115 403.953C318.158 405.473 314.562 407.701 311.533 410.509C308.504 413.318 306.102 416.652 304.462 420.322C302.823 423.991 301.979 427.925 301.979 431.897V473.964C301.979 481.985 305.416 489.679 311.533 495.351C317.65 501.023 325.947 504.21 334.598 504.21H384.092C392.743 504.21 401.039 507.396 407.156 513.069C413.274 518.741 416.71 526.434 416.71 534.456V576.523C416.71 580.495 415.866 584.428 414.227 588.098C412.588 591.768 410.185 595.102 407.156 597.911C404.128 600.719 400.532 602.947 396.574 604.467C392.617 605.987 388.375 606.77 384.092 606.77H383.972C375.321 606.77 367.025 609.956 360.908 615.629C354.791 621.301 351.354 628.994 351.354 637.016V679.083C351.354 683.055 352.198 686.988 353.837 690.657C355.476 694.327 357.879 697.661 360.908 700.47C363.937 703.279 367.532 705.507 371.49 707.027C375.447 708.547 379.689 709.329 383.972 709.329H391.133C399.784 709.329 408.08 712.516 414.198 718.188C420.315 723.86 423.751 731.553 423.751 739.575V781.642C423.751 789.664 420.315 797.357 414.198 803.03C408.081 808.702 399.784 811.889 391.133 811.889H348.427C344.144 811.889 339.902 812.671 335.945 814.191C331.987 815.711 328.392 817.939 325.363 820.747C322.334 823.556 319.931 826.89 318.292 830.56C316.653 834.23 315.809 838.163 315.809 842.135V884.202C315.809 892.224 319.246 899.917 325.363 905.589C331.48 911.262 339.776 914.448 348.427 914.448H1555.36C1564.01 914.448 1572.3 911.262 1578.42 905.589C1584.54 899.917 1587.97 892.224 1587.97 884.202V842.135C1587.97 838.163 1587.13 834.23 1585.49 830.56C1583.85 826.89 1581.45 823.556 1578.42 820.747C1575.39 817.939 1571.8 815.711 1567.84 814.191C1563.88 812.671 1559.64 811.889 1555.36 811.889H1527.08C1518.42 811.889 1510.13 808.702 1504.01 803.03C1497.89 797.357 1494.46 789.664 1494.46 781.642V739.575C1494.46 731.553 1497.89 723.86 1504.01 718.188C1510.13 712.516 1518.42 709.329 1527.08 709.329H1593.76C1602.41 709.329 1610.71 706.142 1616.82 700.47C1622.94 694.798 1626.38 687.104 1626.38 679.083V637.016C1626.38 628.994 1622.94 621.301 1616.82 615.629C1610.71 609.956 1602.41 606.77 1593.76 606.77H1573.53C1564.88 606.77 1556.58 603.583 1550.47 597.911C1544.35 592.238 1540.91 584.545 1540.91 576.523V534.456C1540.91 526.434 1544.35 518.741 1550.47 513.069C1556.58 507.396 1564.88 504.21 1573.53 504.21H1624.4C1633.05 504.21 1641.35 501.023 1647.47 495.351C1653.58 489.679 1657.02 481.985 1657.02 473.964Z" fill="#BA6159"/>
        <path d="M722.091 400.256C722.084 415.594 715.512 430.303 703.818 441.151C692.124 451.999 676.265 458.1 659.724 458.114H426.674C414.81 458.115 403.364 454.049 394.537 446.697C385.711 439.346 380.127 429.229 378.858 418.29C377.59 407.352 380.727 396.365 387.667 387.442C394.606 378.518 404.858 372.289 416.451 369.951C417.378 356.935 423.604 344.731 433.868 335.809C444.132 326.888 457.667 321.915 471.735 321.898C477.432 321.898 483.092 322.737 488.506 324.382C496.718 309.653 509.599 297.608 525.414 289.87C541.23 282.132 559.221 279.07 576.969 281.098C594.717 283.125 611.37 290.144 624.687 301.211C638.004 312.277 647.347 326.86 651.459 342.997C660.265 341.894 669.224 342.55 677.735 344.923C686.245 347.295 694.109 351.328 700.799 356.752C707.489 362.175 712.851 368.863 716.523 376.367C720.196 383.87 722.094 392.016 722.091 400.256Z" fill="#B7816A"/>
        <path d="M1127.34 739.997L1081 676.125C1118.35 645.352 1141.89 602.704 1146.97 556.612C1152.04 510.52 1138.28 464.341 1108.4 427.206C1078.52 390.071 1034.7 364.684 985.611 356.064C936.519 347.445 885.726 356.22 843.276 380.656C800.825 405.091 769.808 443.408 756.357 488.028C742.907 532.649 748.002 580.326 770.635 621.631C793.269 662.936 831.792 694.862 878.589 711.096C925.386 727.331 977.048 726.692 1023.36 709.305L1068.53 771.289C1070.74 774.87 1073.7 778.011 1077.22 780.533C1080.75 783.054 1084.77 784.908 1089.07 785.987C1093.37 787.066 1097.85 787.349 1102.27 786.821C1106.68 786.293 1110.94 784.964 1114.8 782.91C1118.67 780.855 1122.05 778.115 1124.77 774.847C1127.49 771.578 1129.49 767.845 1130.65 763.86C1131.82 759.875 1132.12 755.717 1131.55 751.623C1130.98 747.528 1129.55 743.578 1127.34 739.997Z" fill="#542515"/>
        <path d="M948.908 669.422C1027.48 669.422 1091.18 610.358 1091.18 537.499C1091.18 464.639 1027.48 405.575 948.908 405.575C870.335 405.575 806.639 464.639 806.639 537.499C806.639 610.358 870.335 669.422 948.908 669.422Z" fill="#F19066"/>
        <path d="M948.908 405.576C942.116 405.583 935.333 406.037 928.611 406.935C962.476 411.459 993.448 427.149 1015.85 451.13C1038.25 475.11 1050.58 505.773 1050.58 537.5C1050.58 569.226 1038.25 599.89 1015.85 623.87C993.448 647.85 962.476 663.54 928.611 668.064C947.951 670.65 967.658 669.513 986.503 664.726C1005.35 659.938 1022.93 651.601 1038.15 640.236C1053.36 628.871 1065.89 614.721 1074.96 598.668C1084.02 582.615 1089.41 565.003 1090.81 546.93C1092.21 528.857 1089.58 510.712 1083.08 493.624C1076.58 476.536 1066.36 460.873 1053.04 447.611C1039.73 434.349 1023.61 423.772 1005.69 416.54C987.778 409.308 968.448 405.576 948.908 405.576Z" fill="#A66855"/>
        <path d="M872.706 560.487C884.866 560.487 894.724 551.346 894.724 540.07C894.724 528.794 884.866 519.653 872.706 519.653C860.546 519.653 850.688 528.794 850.688 540.07C850.688 551.346 860.546 560.487 872.706 560.487Z" fill="#B7816A"/>
        <path d="M1020.1 526.505C1028.52 526.505 1035.34 520.177 1035.34 512.371C1035.34 504.565 1028.52 498.237 1020.1 498.237C1011.68 498.237 1004.85 504.565 1004.85 512.371C1004.85 520.177 1011.68 526.505 1020.1 526.505Z" fill="#A66855"/>
        <path d="M934.982 494.026C940.595 494.026 945.145 489.807 945.145 484.603C945.145 479.398 940.595 475.179 934.982 475.179C929.37 475.179 924.82 479.398 924.82 484.603C924.82 489.807 929.37 494.026 934.982 494.026Z" fill="#A66855"/>
        <path d="M938.745 619.518C944.358 619.518 948.908 615.3 948.908 610.095C948.908 604.891 944.358 600.672 938.745 600.672C933.133 600.672 928.583 604.891 928.583 610.095C928.583 615.3 933.133 619.518 938.745 619.518Z" fill="#A66855"/>
        <path d="M997.473 588.332C1005.07 588.332 1011.22 582.624 1011.22 575.583C1011.22 568.542 1005.07 562.834 997.473 562.834C989.88 562.834 983.725 568.542 983.725 575.583C983.725 582.624 989.88 588.332 997.473 588.332Z" fill="#B7816A"/>
        <path d="M842.877 666.532C847.191 666.532 850.688 663.289 850.688 659.289C850.688 655.289 847.191 652.046 842.877 652.046C838.563 652.046 835.066 655.289 835.066 659.289C835.066 663.289 838.563 666.532 842.877 666.532Z" fill="#A66855"/>
        <path d="M1098.99 467.076C1103.3 467.076 1106.8 463.834 1106.8 459.834C1106.8 455.833 1103.3 452.591 1098.99 452.591C1094.67 452.591 1091.18 455.833 1091.18 459.834C1091.18 463.834 1094.67 467.076 1098.99 467.076Z" fill="#A66855"/>
        <path d="M1094.24 615.037C1089.5 624.368 1083.69 633.197 1076.91 641.371C1069.89 649.497 1062.02 656.953 1053.4 663.629C1044.61 670.195 1035.14 675.955 1025.15 680.829C1004.93 690.454 982.734 695.972 960.035 697.016C954.376 697.064 948.73 697.257 943.092 696.94C937.462 696.647 931.853 696.066 926.292 695.2C904.143 691.902 883.096 683.961 864.756 671.981C884.5 680.528 905.646 685.958 927.319 688.046C948.668 689.977 970.218 688.34 990.943 683.211C1001.25 680.608 1011.3 677.191 1020.98 672.997C1030.63 668.659 1039.89 663.619 1048.68 657.924C1057.4 652.013 1065.61 645.484 1073.24 638.395C1080.82 631.072 1087.84 623.267 1094.24 615.037ZM784.566 568.341C776.742 541.636 777.368 513.408 786.368 487.024C790.825 473.734 797.234 461.076 805.416 449.408C809.513 443.569 814.044 438.003 818.975 432.748C823.867 427.457 829.135 422.475 834.744 417.837C840.395 413.24 846.35 408.975 852.574 405.066C855.764 403.229 858.841 401.219 862.145 399.556L867.04 396.97L872.076 394.629C875.41 393.029 878.923 391.772 882.346 390.356C885.871 389.163 889.319 387.785 892.915 386.789C900.02 384.588 907.287 382.867 914.66 381.641C929.353 379.235 944.33 378.695 959.179 380.036C973.874 381.425 988.274 384.781 1001.93 389.997C987.857 386.652 973.411 384.83 958.883 384.57C944.539 384.37 930.22 385.76 916.231 388.711C902.366 391.739 888.962 396.355 876.326 402.451C870.024 405.477 863.921 408.847 858.05 412.543C852.224 416.295 846.65 420.373 841.359 424.753C819.949 442.284 803.576 464.477 793.712 489.333C783.835 514.599 780.697 541.707 784.566 568.341Z" fill="#A66855"/>
        <path d="M675.921 673.934V727.503C675.921 774.028 678.962 777.552 732.934 782.484V802.224H555.054V782.484C612.066 777.552 615.867 773.322 615.867 726.798V673.934H415.183V652.787C487.399 557.625 565.697 454.712 641.714 356.731H675.921V640.096H750.418V673.934L675.921 673.934ZM615.867 430.746C567.978 495.595 514.765 567.492 462.314 640.096H615.867V430.746ZM1426.96 673.934V727.503C1426.96 774.028 1430 777.552 1483.97 782.484V802.224H1306.1V782.484C1363.11 777.552 1366.91 773.322 1366.91 726.798V673.934H1166.22V652.787C1238.44 557.625 1316.74 454.712 1392.76 356.731H1426.96V640.096H1501.46V673.934L1426.96 673.934ZM1366.91 430.746C1319.02 495.595 1265.8 567.492 1213.36 640.096H1366.91V430.746Z" fill="#542515"/>
        <path d="M1546.7 237.304C1546.69 257.506 1538.03 276.88 1522.63 291.168C1507.23 305.457 1486.34 313.493 1464.55 313.511H1157.59C1141.96 313.512 1126.89 308.157 1115.26 298.474C1103.63 288.791 1096.28 275.465 1094.61 261.057C1092.94 246.65 1097.07 232.178 1106.21 220.425C1115.35 208.672 1128.85 200.467 1144.12 197.387C1145.34 180.242 1153.54 164.168 1167.06 152.417C1180.58 140.666 1198.41 134.117 1216.94 134.094C1224.44 134.094 1231.9 135.199 1239.03 137.366C1249.85 117.965 1266.81 102.101 1287.64 91.9084C1308.48 81.7159 1332.17 77.6836 1355.55 80.3541C1378.93 83.0245 1400.86 92.2696 1418.4 106.846C1435.94 121.422 1448.25 140.629 1453.66 161.885C1465.26 160.431 1477.06 161.296 1488.27 164.421C1499.48 167.546 1509.84 172.858 1518.65 180.002C1527.46 187.145 1534.53 195.955 1539.36 205.838C1544.2 215.721 1546.7 226.45 1546.7 237.304ZM1546.27 833.179C1546.26 848.517 1539.69 863.226 1527.99 874.074C1516.3 884.922 1500.44 891.023 1483.9 891.037H1250.85C1238.99 891.037 1227.54 886.971 1218.71 879.62C1209.89 872.269 1204.3 862.151 1203.03 851.213C1201.77 840.275 1204.9 829.288 1211.84 820.364C1218.78 811.441 1229.03 805.212 1240.63 802.874C1241.55 789.857 1247.78 777.653 1258.04 768.732C1268.31 759.811 1281.84 754.838 1295.91 754.821C1301.61 754.821 1307.27 755.659 1312.68 757.305C1320.89 742.575 1333.77 730.531 1349.59 722.793C1365.4 715.055 1383.4 711.993 1401.14 714.021C1418.89 716.048 1435.55 723.067 1448.86 734.133C1462.18 745.2 1471.52 759.782 1475.63 775.92C1484.44 774.816 1493.4 775.473 1501.91 777.845C1510.42 780.218 1518.28 784.251 1524.97 789.674C1531.66 795.098 1537.03 801.786 1540.7 809.29C1544.37 816.793 1546.27 824.939 1546.27 833.179Z" fill="#B7816A"/>
        <path d="M466.329 180.944H546.887" stroke="#473938" stroke-width="3" stroke-miterlimit="10" stroke-linecap="round"/>
        <path d="M466.329 202.473H546.887" stroke="#473938" stroke-width="3" stroke-miterlimit="10" stroke-linecap="round"/>
        <path d="M466.329 224.005H546.887" stroke="#473938" stroke-width="3" stroke-miterlimit="10" stroke-linecap="round"/>
        <path d="M851.304 819.032H931.862" stroke="#473938" stroke-width="3" stroke-miterlimit="10" stroke-linecap="round"/>
        <path d="M851.304 840.563H931.862" stroke="#473938" stroke-width="3" stroke-miterlimit="10" stroke-linecap="round"/>
        <path d="M851.304 862.093H931.862" stroke="#473938" stroke-width="3" stroke-miterlimit="10" stroke-linecap="round"/>
        <path d="M1505.99 533.958H1586.54" stroke="#473938" stroke-width="3" stroke-miterlimit="10" stroke-linecap="round"/>
        <path d="M1505.99 555.49H1586.54" stroke="#473938" stroke-width="3" stroke-miterlimit="10" stroke-linecap="round"/>
        <path d="M1505.99 577.019H1586.54" stroke="#473938" stroke-width="3" stroke-miterlimit="10" stroke-linecap="round"/>
        <path d="M370.787 867.13C393.414 867.13 411.756 850.121 411.756 829.14C411.756 808.159 393.414 791.15 370.787 791.15C348.161 791.15 329.818 808.159 329.818 829.14C329.818 850.121 348.161 867.13 370.787 867.13Z" fill="#B49487"/>
        <path d="M422.347 787.968C434.133 787.968 443.687 779.109 443.687 768.18C443.687 757.251 434.133 748.392 422.347 748.392C410.561 748.392 401.007 757.251 401.007 768.18C401.007 779.109 410.561 787.968 422.347 787.968Z" fill="#B49487"/>
        <path d="M528.413 873.803C538.614 873.803 546.883 866.136 546.883 856.677C546.883 847.218 538.614 839.551 528.413 839.551C518.213 839.551 509.944 847.218 509.944 856.677C509.944 866.136 518.213 873.803 528.413 873.803Z" fill="#B49487"/>
        <path d="M485.519 817.325C492.318 817.325 497.829 812.215 497.829 805.911C497.829 799.607 492.318 794.496 485.519 794.496C478.721 794.496 473.209 799.607 473.209 805.911C473.209 812.215 478.721 817.325 485.519 817.325Z" fill="#B49487"/>
        <path d="M456.543 891.032C472.841 891.032 486.053 878.78 486.053 863.668C486.053 848.555 472.841 836.304 456.543 836.304C440.245 836.304 427.033 848.555 427.033 863.668C427.033 878.78 440.245 891.032 456.543 891.032Z" fill="#B49487"/>
        <path d="M937.808 318.283C960.434 318.283 978.777 301.275 978.777 280.293C978.777 259.312 960.434 242.304 937.808 242.304C915.181 242.304 896.839 259.312 896.839 280.293C896.839 301.275 915.181 318.283 937.808 318.283Z" fill="#B49487"/>
        <path d="M856.538 335.409C866.739 335.409 875.008 327.742 875.008 318.283C875.008 308.824 866.739 301.157 856.538 301.157C846.338 301.157 838.069 308.824 838.069 318.283C838.069 327.742 846.338 335.409 856.538 335.409Z" fill="#B49487"/>
        <path d="M833.897 280.293C850.195 280.293 863.407 268.042 863.407 252.929C863.407 237.817 850.195 225.566 833.897 225.566C817.599 225.566 804.387 237.817 804.387 252.929C804.387 268.042 817.599 280.293 833.897 280.293Z" fill="#B49487"/>
    </g>
    <defs>
        <clipPath id="clip0_19_1753">
            <rect width="1920" height="1080" fill="white"/>
        </clipPath>
    </defs>
</svg>
