<svg width="500" height="805" viewBox="0 0 500 805" fill="none" xmlns="http://www.w3.org/2000/svg">
    <path fill-rule="evenodd" clip-rule="evenodd" d="M172 0C172 13.8071 160.807 25 147 25C133.193 25 122 13.8071 122 0H60C26.8629 0 0 26.8629 0 60V745C0 778.137 26.8629 805 60 805H440C473.137 805 500 778.137 500 745V60C500 52.4278 498.597 45.1833 496.038 38.512C491.59 45.4229 483.829 50 475 50C461.193 50 450 38.8071 450 25C450 16.1707 454.577 8.41036 461.488 3.96245C454.817 1.4027 447.572 0 440 0H172Z" fill="#F19066"/>
</svg>
