<svg width="50" height="50" viewBox="0 0 50 50" fill="none" xmlns="http://www.w3.org/2000/svg">
    <path fill-rule="evenodd" clip-rule="evenodd" d="M37.5 50C38.163 50 38.7989 49.7364 39.2677 49.2676C39.7366 48.7987 40 48.163 40 47.5V45C40 44.337 39.7366 43.7013 39.2677 43.2324C38.7989 42.7636 38.163 42.5 37.5 42.5C36.837 42.5 36.2011 42.7636 35.7323 43.2324C35.2634 43.7013 35 44.337 35 45V47.5C35 48.163 35.2634 48.7987 35.7323 49.2676C36.2011 49.7364 36.837 50 37.5 50ZM40 35H17.5C16.837 35 16.2011 34.7364 15.7323 34.2676C15.2634 33.7987 15 33.163 15 32.5V20C15 19.337 14.7366 18.7013 14.2677 18.2324C13.7989 17.7636 13.163 17.5 12.5 17.5C11.837 17.5 11.2011 17.7636 10.7323 18.2324C10.2634 18.7013 10 19.337 10 20V35C10 36.3261 10.5268 37.5975 11.4645 38.5352C12.4021 39.4728 13.6739 40 15 40H47.5C48.163 40 48.7989 39.7364 49.2677 39.2676C49.7366 38.7987 50 38.163 50 37.5C50 36.837 49.7366 36.2013 49.2677 35.7324C48.7989 35.2636 48.163 35 47.5 35H40ZM15 15H32.5C33.163 15 33.7989 15.2636 34.2677 15.7324C34.7366 16.2013 35 16.837 35 17.5V30C35 30.663 35.2634 31.2987 35.7323 31.7676C36.2011 32.2364 36.837 32.5 37.5 32.5C38.163 32.5 38.7989 32.2364 39.2677 31.7676C39.7366 31.2987 40 30.663 40 30V15C40 13.6739 39.4732 12.4025 38.5355 11.4648C37.5979 10.5272 36.3261 10 35 10H2.5C1.83696 10 1.20111 10.2636 0.732269 10.7324C0.263428 11.2013 0 11.837 0 12.5C0 13.163 0.263428 13.7987 0.732269 14.2676C1.20111 14.7364 1.83696 15 2.5 15H15ZM15 2.5V5C15 5.66304 14.7366 6.29874 14.2677 6.76758C13.7989 7.23642 13.163 7.5 12.5 7.5C11.837 7.5 11.2011 7.23642 10.7323 6.76758C10.2634 6.29874 10 5.66304 10 5V2.5C10 1.83696 10.2634 1.20126 10.7323 0.732422C11.2011 0.263581 11.837 0 12.5 0C13.163 0 13.7989 0.263581 14.2677 0.732422C14.7366 1.20126 15 1.83696 15 2.5Z" fill="#833D37"/>
</svg>
