<svg width="419" height="62" viewBox="0 0 419 62" fill="none" xmlns="http://www.w3.org/2000/svg">
    <rect width="419" height="62" rx="30" fill="#F3B093"/>
    <g filter="url(#filter0_i_27_62)">
        <path d="M80.3984 33.4219H76.2383L76.2148 31.6875H79.6133C80.2852 31.6875 80.8438 31.6211 81.2891 31.4883C81.7422 31.3555 82.082 31.1562 82.3086 30.8906C82.5352 30.625 82.6484 30.2969 82.6484 29.9062C82.6484 29.6016 82.582 29.3359 82.4492 29.1094C82.3242 28.875 82.1328 28.6836 81.875 28.5352C81.6172 28.3789 81.2969 28.2656 80.9141 28.1953C80.5391 28.1172 80.0977 28.0781 79.5898 28.0781H76.8125V39H74.6445V26.3203H79.5898C80.3945 26.3203 81.1172 26.3906 81.7578 26.5312C82.4062 26.6719 82.957 26.8867 83.4102 27.1758C83.8711 27.457 84.2227 27.8164 84.4648 28.2539C84.707 28.6914 84.8281 29.207 84.8281 29.8008C84.8281 30.1836 84.75 30.5469 84.5938 30.8906C84.4375 31.2344 84.207 31.5391 83.9023 31.8047C83.5977 32.0703 83.2227 32.2891 82.7773 32.4609C82.332 32.625 81.8203 32.7305 81.2422 32.7773L80.3984 33.4219ZM80.3984 39H75.4531L76.5312 37.2422H80.3984C81 37.2422 81.5 37.168 81.8984 37.0195C82.2969 36.8633 82.5938 36.6445 82.7891 36.3633C82.9922 36.0742 83.0938 35.7305 83.0938 35.332C83.0938 34.9336 82.9922 34.5938 82.7891 34.3125C82.5938 34.0234 82.2969 33.8047 81.8984 33.6562C81.5 33.5 81 33.4219 80.3984 33.4219H77.1055L77.1289 31.6875H81.2422L82.0273 32.3438C82.7227 32.3984 83.3125 32.5703 83.7969 32.8594C84.2812 33.1484 84.6484 33.5156 84.8984 33.9609C85.1484 34.3984 85.2734 34.875 85.2734 35.3906C85.2734 35.9844 85.1602 36.5078 84.9336 36.9609C84.7148 37.4141 84.3945 37.793 83.9727 38.0977C83.5508 38.3945 83.0391 38.6211 82.4375 38.7773C81.8359 38.9258 81.1562 39 80.3984 39ZM87.6055 32.8008V32.5312C87.6055 31.6172 87.7383 30.7695 88.0039 29.9883C88.2695 29.1992 88.6523 28.5156 89.1523 27.9375C89.6523 27.3516 90.2578 26.8984 90.9688 26.5781C91.6797 26.25 92.4766 26.0859 93.3594 26.0859C94.25 26.0859 95.0508 26.25 95.7617 26.5781C96.4805 26.8984 97.0898 27.3516 97.5898 27.9375C98.0977 28.5156 98.4844 29.1992 98.75 29.9883C99.0156 30.7695 99.1484 31.6172 99.1484 32.5312V32.8008C99.1484 33.7148 99.0156 34.5625 98.75 35.3438C98.4844 36.125 98.0977 36.8086 97.5898 37.3945C97.0898 37.9727 96.4844 38.4258 95.7734 38.7539C95.0703 39.0742 94.2734 39.2344 93.3828 39.2344C92.4922 39.2344 91.6914 39.0742 90.9805 38.7539C90.2695 38.4258 89.6602 37.9727 89.1523 37.3945C88.6523 36.8086 88.2695 36.125 88.0039 35.3438C87.7383 34.5625 87.6055 33.7148 87.6055 32.8008ZM89.7734 32.5312V32.8008C89.7734 33.4336 89.8477 34.0312 89.9961 34.5938C90.1445 35.1484 90.3672 35.6406 90.6641 36.0703C90.9688 36.5 91.3477 36.8398 91.8008 37.0898C92.2539 37.332 92.7812 37.4531 93.3828 37.4531C93.9766 37.4531 94.4961 37.332 94.9414 37.0898C95.3945 36.8398 95.7695 36.5 96.0664 36.0703C96.3633 35.6406 96.5859 35.1484 96.7344 34.5938C96.8906 34.0312 96.9688 33.4336 96.9688 32.8008V32.5312C96.9688 31.9062 96.8906 31.3164 96.7344 30.7617C96.5859 30.1992 96.3594 29.7031 96.0547 29.2734C95.7578 28.8359 95.3828 28.4922 94.9297 28.2422C94.4844 27.9922 93.9609 27.8672 93.3594 27.8672C92.7656 27.8672 92.2422 27.9922 91.7891 28.2422C91.3438 28.4922 90.9688 28.8359 90.6641 29.2734C90.3672 29.7031 90.1445 30.1992 89.9961 30.7617C89.8477 31.3164 89.7734 31.9062 89.7734 32.5312ZM104.211 35.5664L110.059 26.3203H112.238V39H110.059V29.7539L104.211 39H102.055V26.3203H104.211V35.5664ZM108.875 21.7266H110.633C110.633 22.3359 110.492 22.8789 110.211 23.3555C109.93 23.8242 109.527 24.1914 109.004 24.457C108.48 24.7227 107.859 24.8555 107.141 24.8555C106.055 24.8555 105.195 24.5664 104.562 23.9883C103.938 23.4023 103.625 22.6484 103.625 21.7266H105.383C105.383 22.1875 105.516 22.5938 105.781 22.9453C106.047 23.2969 106.5 23.4727 107.141 23.4727C107.766 23.4727 108.211 23.2969 108.477 22.9453C108.742 22.5938 108.875 22.1875 108.875 21.7266ZM120.887 26.3203V39H118.707V26.3203H120.887ZM125.141 26.3203V28.0781H114.535V26.3203H125.141ZM129.617 35.5664L135.465 26.3203H137.645V39H135.465V29.7539L129.617 39H127.461V26.3203H129.617V35.5664ZM152.152 37.4531C152.668 37.4531 153.145 37.3477 153.582 37.1367C154.02 36.9258 154.379 36.6367 154.66 36.2695C154.941 35.8945 155.102 35.4688 155.141 34.9922H157.203C157.164 35.7422 156.91 36.4414 156.441 37.0898C155.98 37.7305 155.375 38.25 154.625 38.6484C153.875 39.0391 153.051 39.2344 152.152 39.2344C151.199 39.2344 150.367 39.0664 149.656 38.7305C148.953 38.3945 148.367 37.9336 147.898 37.3477C147.438 36.7617 147.09 36.0898 146.855 35.332C146.629 34.5664 146.516 33.7578 146.516 32.9062V32.4141C146.516 31.5625 146.629 30.7578 146.855 30C147.09 29.2344 147.438 28.5586 147.898 27.9727C148.367 27.3867 148.953 26.9258 149.656 26.5898C150.367 26.2539 151.199 26.0859 152.152 26.0859C153.145 26.0859 154.012 26.2891 154.754 26.6953C155.496 27.0938 156.078 27.6406 156.5 28.3359C156.93 29.0234 157.164 29.8047 157.203 30.6797H155.141C155.102 30.1562 154.953 29.6836 154.695 29.2617C154.445 28.8398 154.102 28.5039 153.664 28.2539C153.234 27.9961 152.73 27.8672 152.152 27.8672C151.488 27.8672 150.93 28 150.477 28.2656C150.031 28.5234 149.676 28.875 149.41 29.3203C149.152 29.7578 148.965 30.2461 148.848 30.7852C148.738 31.3164 148.684 31.8594 148.684 32.4141V32.9062C148.684 33.4609 148.738 34.0078 148.848 34.5469C148.957 35.0859 149.141 35.5742 149.398 36.0117C149.664 36.4492 150.02 36.8008 150.465 37.0664C150.918 37.3242 151.48 37.4531 152.152 37.4531ZM174.043 26.3203V28.1133H167.633V26.3203H174.043ZM167.949 26.3203V39H165.781V26.3203H167.949ZM175.965 26.3203V39H173.785V26.3203H175.965ZM178.871 32.8008V32.5312C178.871 31.6172 179.004 30.7695 179.27 29.9883C179.535 29.1992 179.918 28.5156 180.418 27.9375C180.918 27.3516 181.523 26.8984 182.234 26.5781C182.945 26.25 183.742 26.0859 184.625 26.0859C185.516 26.0859 186.316 26.25 187.027 26.5781C187.746 26.8984 188.355 27.3516 188.855 27.9375C189.363 28.5156 189.75 29.1992 190.016 29.9883C190.281 30.7695 190.414 31.6172 190.414 32.5312V32.8008C190.414 33.7148 190.281 34.5625 190.016 35.3438C189.75 36.125 189.363 36.8086 188.855 37.3945C188.355 37.9727 187.75 38.4258 187.039 38.7539C186.336 39.0742 185.539 39.2344 184.648 39.2344C183.758 39.2344 182.957 39.0742 182.246 38.7539C181.535 38.4258 180.926 37.9727 180.418 37.3945C179.918 36.8086 179.535 36.125 179.27 35.3438C179.004 34.5625 178.871 33.7148 178.871 32.8008ZM181.039 32.5312V32.8008C181.039 33.4336 181.113 34.0312 181.262 34.5938C181.41 35.1484 181.633 35.6406 181.93 36.0703C182.234 36.5 182.613 36.8398 183.066 37.0898C183.52 37.332 184.047 37.4531 184.648 37.4531C185.242 37.4531 185.762 37.332 186.207 37.0898C186.66 36.8398 187.035 36.5 187.332 36.0703C187.629 35.6406 187.852 35.1484 188 34.5938C188.156 34.0312 188.234 33.4336 188.234 32.8008V32.5312C188.234 31.9062 188.156 31.3164 188 30.7617C187.852 30.1992 187.625 29.7031 187.32 29.2734C187.023 28.8359 186.648 28.4922 186.195 28.2422C185.75 27.9922 185.227 27.8672 184.625 27.8672C184.031 27.8672 183.508 27.9922 183.055 28.2422C182.609 28.4922 182.234 28.8359 181.93 29.2734C181.633 29.7031 181.41 30.1992 181.262 30.7617C181.113 31.3164 181.039 31.9062 181.039 32.5312ZM200.422 36.1172L204.734 26.3203H206.82L201.172 39H199.672L194.047 26.3203H196.133L200.422 36.1172ZM195.5 26.3203V39H193.332V26.3203H195.5ZM205.273 39V26.3203H207.453V39H205.273ZM210.371 32.8008V32.5312C210.371 31.6172 210.504 30.7695 210.77 29.9883C211.035 29.1992 211.418 28.5156 211.918 27.9375C212.418 27.3516 213.023 26.8984 213.734 26.5781C214.445 26.25 215.242 26.0859 216.125 26.0859C217.016 26.0859 217.816 26.25 218.527 26.5781C219.246 26.8984 219.855 27.3516 220.355 27.9375C220.863 28.5156 221.25 29.1992 221.516 29.9883C221.781 30.7695 221.914 31.6172 221.914 32.5312V32.8008C221.914 33.7148 221.781 34.5625 221.516 35.3438C221.25 36.125 220.863 36.8086 220.355 37.3945C219.855 37.9727 219.25 38.4258 218.539 38.7539C217.836 39.0742 217.039 39.2344 216.148 39.2344C215.258 39.2344 214.457 39.0742 213.746 38.7539C213.035 38.4258 212.426 37.9727 211.918 37.3945C211.418 36.8086 211.035 36.125 210.77 35.3438C210.504 34.5625 210.371 33.7148 210.371 32.8008ZM212.539 32.5312V32.8008C212.539 33.4336 212.613 34.0312 212.762 34.5938C212.91 35.1484 213.133 35.6406 213.43 36.0703C213.734 36.5 214.113 36.8398 214.566 37.0898C215.02 37.332 215.547 37.4531 216.148 37.4531C216.742 37.4531 217.262 37.332 217.707 37.0898C218.16 36.8398 218.535 36.5 218.832 36.0703C219.129 35.6406 219.352 35.1484 219.5 34.5938C219.656 34.0312 219.734 33.4336 219.734 32.8008V32.5312C219.734 31.9062 219.656 31.3164 219.5 30.7617C219.352 30.1992 219.125 29.7031 218.82 29.2734C218.523 28.8359 218.148 28.4922 217.695 28.2422C217.25 27.9922 216.727 27.8672 216.125 27.8672C215.531 27.8672 215.008 27.9922 214.555 28.2422C214.109 28.4922 213.734 28.8359 213.43 29.2734C213.133 29.7031 212.91 30.1992 212.762 30.7617C212.613 31.3164 212.539 31.9062 212.539 32.5312ZM242.258 37.2188L242.047 42.7617H240.113V39H238.461V37.2188H242.258ZM224.691 26.3203H226.859V37.2188H231.5V26.3203H233.68V37.2188H238.309V26.3203H240.477V39H224.691V26.3203ZM246.289 30.6797H250.098C251.121 30.6797 251.984 30.8594 252.688 31.2188C253.391 31.5703 253.922 32.0586 254.281 32.6836C254.648 33.3008 254.832 34.0039 254.832 34.793C254.832 35.3789 254.73 35.9297 254.527 36.4453C254.324 36.9531 254.02 37.3984 253.613 37.7812C253.215 38.1641 252.719 38.4648 252.125 38.6836C251.539 38.8945 250.863 39 250.098 39H244.707V26.3203H246.875V37.2188H250.098C250.723 37.2188 251.223 37.1055 251.598 36.8789C251.973 36.6523 252.242 36.3594 252.406 36C252.57 35.6406 252.652 35.2656 252.652 34.875C252.652 34.4922 252.57 34.1172 252.406 33.75C252.242 33.3828 251.973 33.0781 251.598 32.8359C251.223 32.5859 250.723 32.4609 250.098 32.4609H246.289V30.6797ZM264.758 31.6992V33.4688H258.02V31.6992H264.758ZM259.906 26.3203V39H257.738V26.3203H259.906ZM262.906 32.8008V32.5312C262.906 31.6172 263.039 30.7695 263.305 29.9883C263.57 29.1992 263.953 28.5156 264.453 27.9375C264.961 27.3516 265.566 26.8984 266.27 26.5781C266.98 26.25 267.777 26.0859 268.66 26.0859C269.559 26.0859 270.363 26.25 271.074 26.5781C271.785 26.8984 272.391 27.3516 272.891 27.9375C273.398 28.5156 273.785 29.1992 274.051 29.9883C274.316 30.7695 274.449 31.6172 274.449 32.5312V32.8008C274.449 33.7148 274.316 34.5625 274.051 35.3438C273.785 36.125 273.402 36.8086 272.902 37.3945C272.402 37.9727 271.797 38.4258 271.086 38.7539C270.375 39.0742 269.574 39.2344 268.684 39.2344C267.793 39.2344 266.992 39.0742 266.281 38.7539C265.57 38.4258 264.961 37.9727 264.453 37.3945C263.953 36.8086 263.57 36.125 263.305 35.3438C263.039 34.5625 262.906 33.7148 262.906 32.8008ZM265.086 32.5312V32.8008C265.086 33.4336 265.16 34.0312 265.309 34.5938C265.457 35.1484 265.68 35.6406 265.977 36.0703C266.281 36.5 266.656 36.8398 267.102 37.0898C267.555 37.332 268.082 37.4531 268.684 37.4531C269.285 37.4531 269.809 37.332 270.254 37.0898C270.707 36.8398 271.082 36.5 271.379 36.0703C271.676 35.6406 271.898 35.1484 272.047 34.5938C272.203 34.0312 272.281 33.4336 272.281 32.8008V32.5312C272.281 31.9062 272.203 31.3164 272.047 30.7617C271.898 30.1992 271.672 29.7031 271.367 29.2734C271.07 28.8359 270.695 28.4922 270.242 28.2422C269.789 27.9922 269.262 27.8672 268.66 27.8672C268.066 27.8672 267.547 27.9922 267.102 28.2422C266.656 28.4922 266.281 28.8359 265.977 29.2734C265.68 29.7031 265.457 30.1992 265.309 30.7617C265.16 31.3164 265.086 31.9062 265.086 32.5312ZM296.023 30.5039V36.75C295.812 37.0625 295.477 37.4141 295.016 37.8047C294.555 38.1875 293.918 38.5234 293.105 38.8125C292.301 39.0938 291.262 39.2344 289.988 39.2344C288.949 39.2344 287.992 39.0547 287.117 38.6953C286.25 38.3281 285.496 37.7969 284.855 37.1016C284.223 36.3984 283.73 35.5469 283.379 34.5469C283.035 33.5391 282.863 32.3984 282.863 31.125V29.8008C282.863 28.5273 283.012 27.3906 283.309 26.3906C283.613 25.3906 284.059 24.543 284.645 23.8477C285.23 23.1445 285.949 22.6133 286.801 22.2539C287.652 21.8867 288.629 21.7031 289.73 21.7031C291.035 21.7031 292.125 21.9297 293 22.3828C293.883 22.8281 294.57 23.4453 295.062 24.2344C295.562 25.0234 295.883 25.9219 296.023 26.9297H293.762C293.66 26.3125 293.457 25.75 293.152 25.2422C292.855 24.7344 292.43 24.3281 291.875 24.0234C291.32 23.7109 290.605 23.5547 289.73 23.5547C288.941 23.5547 288.258 23.6992 287.68 23.9883C287.102 24.2773 286.625 24.6914 286.25 25.2305C285.875 25.7695 285.594 26.4219 285.406 27.1875C285.227 27.9531 285.137 28.8164 285.137 29.7773V31.125C285.137 32.1094 285.25 32.9883 285.477 33.7617C285.711 34.5352 286.043 35.1953 286.473 35.7422C286.902 36.2812 287.414 36.6914 288.008 36.9727C288.609 37.2539 289.273 37.3945 290 37.3945C290.805 37.3945 291.457 37.3281 291.957 37.1953C292.457 37.0547 292.848 36.8906 293.129 36.7031C293.41 36.5078 293.625 36.3242 293.773 36.1523V32.332H289.824V30.5039H296.023ZM298.871 32.8008V32.5312C298.871 31.6172 299.004 30.7695 299.27 29.9883C299.535 29.1992 299.918 28.5156 300.418 27.9375C300.918 27.3516 301.523 26.8984 302.234 26.5781C302.945 26.25 303.742 26.0859 304.625 26.0859C305.516 26.0859 306.316 26.25 307.027 26.5781C307.746 26.8984 308.355 27.3516 308.855 27.9375C309.363 28.5156 309.75 29.1992 310.016 29.9883C310.281 30.7695 310.414 31.6172 310.414 32.5312V32.8008C310.414 33.7148 310.281 34.5625 310.016 35.3438C309.75 36.125 309.363 36.8086 308.855 37.3945C308.355 37.9727 307.75 38.4258 307.039 38.7539C306.336 39.0742 305.539 39.2344 304.648 39.2344C303.758 39.2344 302.957 39.0742 302.246 38.7539C301.535 38.4258 300.926 37.9727 300.418 37.3945C299.918 36.8086 299.535 36.125 299.27 35.3438C299.004 34.5625 298.871 33.7148 298.871 32.8008ZM301.039 32.5312V32.8008C301.039 33.4336 301.113 34.0312 301.262 34.5938C301.41 35.1484 301.633 35.6406 301.93 36.0703C302.234 36.5 302.613 36.8398 303.066 37.0898C303.52 37.332 304.047 37.4531 304.648 37.4531C305.242 37.4531 305.762 37.332 306.207 37.0898C306.66 36.8398 307.035 36.5 307.332 36.0703C307.629 35.6406 307.852 35.1484 308 34.5938C308.156 34.0312 308.234 33.4336 308.234 32.8008V32.5312C308.234 31.9062 308.156 31.3164 308 30.7617C307.852 30.1992 307.625 29.7031 307.32 29.2734C307.023 28.8359 306.648 28.4922 306.195 28.2422C305.75 27.9922 305.227 27.8672 304.625 27.8672C304.031 27.8672 303.508 27.9922 303.055 28.2422C302.609 28.4922 302.234 28.8359 301.93 29.2734C301.633 29.7031 301.41 30.1992 301.262 30.7617C301.113 31.3164 301.039 31.9062 301.039 32.5312ZM312.559 32.8008V32.5312C312.559 31.6172 312.691 30.7695 312.957 29.9883C313.223 29.1992 313.605 28.5156 314.105 27.9375C314.605 27.3516 315.211 26.8984 315.922 26.5781C316.633 26.25 317.43 26.0859 318.312 26.0859C319.203 26.0859 320.004 26.25 320.715 26.5781C321.434 26.8984 322.043 27.3516 322.543 27.9375C323.051 28.5156 323.438 29.1992 323.703 29.9883C323.969 30.7695 324.102 31.6172 324.102 32.5312V32.8008C324.102 33.7148 323.969 34.5625 323.703 35.3438C323.438 36.125 323.051 36.8086 322.543 37.3945C322.043 37.9727 321.438 38.4258 320.727 38.7539C320.023 39.0742 319.227 39.2344 318.336 39.2344C317.445 39.2344 316.645 39.0742 315.934 38.7539C315.223 38.4258 314.613 37.9727 314.105 37.3945C313.605 36.8086 313.223 36.125 312.957 35.3438C312.691 34.5625 312.559 33.7148 312.559 32.8008ZM314.727 32.5312V32.8008C314.727 33.4336 314.801 34.0312 314.949 34.5938C315.098 35.1484 315.32 35.6406 315.617 36.0703C315.922 36.5 316.301 36.8398 316.754 37.0898C317.207 37.332 317.734 37.4531 318.336 37.4531C318.93 37.4531 319.449 37.332 319.895 37.0898C320.348 36.8398 320.723 36.5 321.02 36.0703C321.316 35.6406 321.539 35.1484 321.688 34.5938C321.844 34.0312 321.922 33.4336 321.922 32.8008V32.5312C321.922 31.9062 321.844 31.3164 321.688 30.7617C321.539 30.1992 321.312 29.7031 321.008 29.2734C320.711 28.8359 320.336 28.4922 319.883 28.2422C319.438 27.9922 318.914 27.8672 318.312 27.8672C317.719 27.8672 317.195 27.9922 316.742 28.2422C316.297 28.4922 315.922 28.8359 315.617 29.2734C315.32 29.7031 315.098 30.1992 314.949 30.7617C314.801 31.3164 314.727 31.9062 314.727 32.5312ZM335.035 26.3203H337.004V38.7305C337.004 39.8477 336.777 40.8008 336.324 41.5898C335.871 42.3789 335.238 42.9766 334.426 43.3828C333.621 43.7969 332.691 44.0039 331.637 44.0039C331.199 44.0039 330.684 43.9336 330.09 43.793C329.504 43.6602 328.926 43.4297 328.355 43.1016C327.793 42.7812 327.32 42.3477 326.938 41.8008L328.074 40.5117C328.605 41.1523 329.16 41.5977 329.738 41.8477C330.324 42.0977 330.902 42.2227 331.473 42.2227C332.16 42.2227 332.754 42.0938 333.254 41.8359C333.754 41.5781 334.141 41.1953 334.414 40.6875C334.695 40.1875 334.836 39.5703 334.836 38.8359V29.1094L335.035 26.3203ZM326.305 32.8008V32.5547C326.305 31.5859 326.418 30.707 326.645 29.918C326.879 29.1211 327.211 28.4375 327.641 27.8672C328.078 27.2969 328.605 26.8594 329.223 26.5547C329.84 26.2422 330.535 26.0859 331.309 26.0859C332.105 26.0859 332.801 26.2266 333.395 26.5078C333.996 26.7812 334.504 27.1836 334.918 27.7148C335.34 28.2383 335.672 28.8711 335.914 29.6133C336.156 30.3555 336.324 31.1953 336.418 32.1328V33.2109C336.332 34.1406 336.164 34.9766 335.914 35.7188C335.672 36.4609 335.34 37.0938 334.918 37.6172C334.504 38.1406 333.996 38.543 333.395 38.8242C332.793 39.0977 332.09 39.2344 331.285 39.2344C330.527 39.2344 329.84 39.0742 329.223 38.7539C328.613 38.4336 328.09 37.9844 327.652 37.4062C327.215 36.8281 326.879 36.1484 326.645 35.3672C326.418 34.5781 326.305 33.7227 326.305 32.8008ZM328.473 32.5547V32.8008C328.473 33.4336 328.535 34.0273 328.66 34.582C328.793 35.1367 328.992 35.625 329.258 36.0469C329.531 36.4688 329.879 36.8008 330.301 37.043C330.723 37.2773 331.227 37.3945 331.812 37.3945C332.531 37.3945 333.125 37.2422 333.594 36.9375C334.062 36.6328 334.434 36.2305 334.707 35.7305C334.988 35.2305 335.207 34.6875 335.363 34.1016V31.2773C335.277 30.8477 335.145 30.4336 334.965 30.0352C334.793 29.6289 334.566 29.2695 334.285 28.957C334.012 28.6367 333.672 28.3828 333.266 28.1953C332.859 28.0078 332.383 27.9141 331.836 27.9141C331.242 27.9141 330.73 28.0391 330.301 28.2891C329.879 28.5312 329.531 28.8672 329.258 29.2969C328.992 29.7188 328.793 30.2109 328.66 30.7734C328.535 31.3281 328.473 31.9219 328.473 32.5547ZM342.652 21V39H340.473V21H342.652ZM351.395 39.2344C350.512 39.2344 349.711 39.0859 348.992 38.7891C348.281 38.4844 347.668 38.0586 347.152 37.5117C346.645 36.9648 346.254 36.3164 345.98 35.5664C345.707 34.8164 345.57 33.9961 345.57 33.1055V32.6133C345.57 31.582 345.723 30.6641 346.027 29.8594C346.332 29.0469 346.746 28.3594 347.27 27.7969C347.793 27.2344 348.387 26.8086 349.051 26.5195C349.715 26.2305 350.402 26.0859 351.113 26.0859C352.02 26.0859 352.801 26.2422 353.457 26.5547C354.121 26.8672 354.664 27.3047 355.086 27.8672C355.508 28.4219 355.82 29.0781 356.023 29.8359C356.227 30.5859 356.328 31.4062 356.328 32.2969V33.2695H346.859V31.5H354.16V31.3359C354.129 30.7734 354.012 30.2266 353.809 29.6953C353.613 29.1641 353.301 28.7266 352.871 28.3828C352.441 28.0391 351.855 27.8672 351.113 27.8672C350.621 27.8672 350.168 27.9727 349.754 28.1836C349.34 28.3867 348.984 28.6914 348.688 29.0977C348.391 29.5039 348.16 30 347.996 30.5859C347.832 31.1719 347.75 31.8477 347.75 32.6133V33.1055C347.75 33.707 347.832 34.2734 347.996 34.8047C348.168 35.3281 348.414 35.7891 348.734 36.1875C349.062 36.5859 349.457 36.8984 349.918 37.125C350.387 37.3516 350.918 37.4648 351.512 37.4648C352.277 37.4648 352.926 37.3086 353.457 36.9961C353.988 36.6836 354.453 36.2656 354.852 35.7422L356.164 36.7852C355.891 37.1992 355.543 37.5938 355.121 37.9688C354.699 38.3438 354.18 38.6484 353.562 38.8828C352.953 39.1172 352.23 39.2344 351.395 39.2344Z" fill="#250000"/>
    </g>
    <g clip-path="url(#clip0_27_62)">
        <path d="M56.9762 31.4678C56.9762 29.4193 56.8061 27.9245 56.4379 26.3743H32.498V35.6201H46.5502C46.267 37.9178 44.7371 41.3781 41.3373 43.7033L41.2896 44.0128L48.859 49.7424L49.3834 49.7935C54.1996 45.4474 56.9762 39.0527 56.9762 31.4678Z" fill="#E39A94"/>
        <path d="M32.498 55.8282C39.3824 55.8282 45.1619 53.6135 49.3834 49.7935L41.3373 43.7032C39.1842 45.1704 36.2943 46.1946 32.498 46.1946C25.7553 46.1946 20.0324 41.8486 17.9924 35.8416L17.6934 35.8664L9.82266 41.8181L9.71973 42.0977C13.9127 50.2362 22.5254 55.8282 32.498 55.8282Z" fill="#D97F77"/>
        <path d="M17.9924 35.8416C17.4541 34.2914 17.1426 32.6303 17.1426 30.9141C17.1426 29.1977 17.4541 27.5368 17.9641 25.9866L17.9498 25.6565L9.98047 19.6091L9.71973 19.7303C7.9916 23.1076 7 26.9002 7 30.9141C7 34.928 7.9916 38.7204 9.71973 42.0977L17.9924 35.8416Z" fill="#F19066"/>
        <path d="M32.498 15.6334C37.2859 15.6334 40.5156 17.6542 42.3572 19.3429L49.5533 12.4777C45.1338 8.46374 39.3824 6 32.498 6C22.5254 6 13.9127 11.5918 9.71973 19.7303L17.9641 25.9866C20.0324 19.9796 25.7553 15.6334 32.498 15.6334Z" fill="#BA6159"/>
    </g>
    <defs>
        <filter id="filter0_i_27_62" x="74.6445" y="21" width="281.684" height="27.0039" filterUnits="userSpaceOnUse" color-interpolation-filters="sRGB">
            <feFlood flood-opacity="0" result="BackgroundImageFix"/>
            <feBlend mode="normal" in="SourceGraphic" in2="BackgroundImageFix" result="shape"/>
            <feColorMatrix in="SourceAlpha" type="matrix" values="0 0 0 0 0 0 0 0 0 0 0 0 0 0 0 0 0 0 127 0" result="hardAlpha"/>
            <feOffset dy="4"/>
            <feGaussianBlur stdDeviation="2"/>
            <feComposite in2="hardAlpha" operator="arithmetic" k2="-1" k3="1"/>
            <feColorMatrix type="matrix" values="0 0 0 0 0 0 0 0 0 0 0 0 0 0 0 0 0 0 0.25 0"/>
            <feBlend mode="normal" in2="shape" result="effect1_innerShadow_27_62"/>
        </filter>
        <clipPath id="clip0_27_62">
            <rect width="50" height="50" fill="white" transform="translate(7 6)"/>
        </clipPath>
    </defs>
</svg>
