<svg width="798" height="785" viewBox="0 0 798 785" fill="none" xmlns="http://www.w3.org/2000/svg">
    <path d="M152.893 278.163C142.016 377.911 126.305 391.457 62.2526 467.807C28.9103 507.552 38.7879 567.873 58.5248 618.172C75.6547 661.825 120.463 684.545 166.582 684.545H531.096C566.091 684.545 694.795 581.541 719.698 556.474C818.796 456.726 761.997 255.995 691.901 216.589C621.805 177.183 542.042 252.302 416.354 136.544C290.667 20.7863 162.964 185.803 152.893 278.163Z" fill="#DC8881"/>
    <path d="M528.422 160.909C491.057 149.881 459.592 119.556 448.529 105.772C430.093 66.9265 518.588 89.4821 546.859 105.772C575.129 122.063 613.231 127.075 605.855 144.618C598.481 162.162 575.129 174.692 528.422 160.909Z" fill="#DC8881"/>
    <path d="M511.213 677.106H392.13C358.981 664.518 314.785 649.414 325.834 620.465C336.884 591.513 392.13 630.534 406.861 602.842C421.595 575.149 302.509 571.374 314.785 536.131C327.063 500.888 401.95 546.2 392.13 512.214C382.309 478.23 298.825 490.818 302.509 455.573C306.193 420.33 368.804 478.23 376.17 437.952C383.535 397.672 316.014 325.927 368.804 313.341C421.595 300.753 406.861 431.658 425.276 437.952C443.691 444.247 460.88 376.276 486.661 406.485C512.441 436.693 468.246 504.663 486.661 536.131C505.076 567.599 530.857 450.538 560.321 504.663C583.892 547.963 537.403 637.666 511.213 677.106Z" fill="#FFE7E5"/>
    <path d="M616.514 369.536L621.366 395.58L616.514 422.865C603.983 424.518 578.433 427.826 576.492 427.826C574.553 427.826 560.321 415.425 553.448 409.224L560.726 369.536C540.35 362.592 533.639 331.919 532.83 317.448C527.979 257.918 566.788 250.479 574.066 250.479C581.343 250.479 627.431 250.479 633.495 300.087C638.347 339.771 624.196 362.921 616.514 369.536Z" fill="#FFE7E5"/>
    <path fill-rule="evenodd" clip-rule="evenodd" d="M603.222 258.933C615.742 264.819 628.173 276.542 631.088 300.394C635.857 339.41 621.892 361.665 614.952 367.64L613.867 368.576L618.9 395.591L614.447 420.637C608.247 421.453 599.692 422.563 592.233 423.504C588.137 424.021 584.378 424.486 581.524 424.82C580.098 424.986 578.904 425.12 578.01 425.212C577.563 425.258 577.202 425.294 576.928 425.315C576.874 425.321 576.827 425.324 576.784 425.329C576.699 425.283 576.587 425.223 576.449 425.139C575.957 424.845 575.286 424.388 574.454 423.776C572.799 422.56 570.666 420.852 568.349 418.926C564.168 415.447 559.475 411.332 556.087 408.294L563.497 367.869L561.492 367.184C552.275 364.042 545.885 355.425 541.669 345.339C537.477 335.311 535.642 324.316 535.251 317.307L535.248 317.274L535.245 317.242C532.87 288.086 541.191 272.16 550.532 263.475C560.005 254.668 570.905 252.96 574.065 252.96C577.654 252.96 590.542 252.971 603.222 258.933ZM574.087 247.999H574.065C569.95 247.999 557.805 250.009 547.269 259.806C536.602 269.72 527.944 287.27 530.41 317.622C530.83 325.083 532.758 336.643 537.209 347.289C541.374 357.25 547.939 366.846 557.965 371.128L550.809 410.151L551.844 411.084C555.294 414.196 560.595 418.872 565.287 422.775C567.631 424.722 569.849 426.504 571.624 427.807C572.504 428.454 573.318 429.015 574.002 429.423C574.342 429.627 574.696 429.82 575.039 429.969C575.313 430.086 575.858 430.307 576.491 430.307C577.156 430.307 579.314 430.073 582.077 429.749C584.953 429.412 588.727 428.944 592.829 428.427C601.03 427.393 610.555 426.153 616.825 425.326L618.583 425.092L623.834 395.569L619.152 370.445C627.657 362.16 640.629 338.463 635.903 299.779C632.753 274.024 619.107 260.94 605.249 254.426C591.576 247.999 577.805 247.999 574.087 247.999Z" fill="#722F2B"/>
    <path d="M584.149 369.536C572.852 373.388 563.361 371.141 559.437 369.536L557.086 383.974C572.147 382.051 581.01 373.948 584.149 369.536Z" fill="#722F2B"/>
    <path d="M587.408 411.704C611.665 411.704 621.77 396.821 625.005 389.381L633.495 391.859L580.13 674.625H571.64H441.866L523.127 406.743L551.022 389.381H554.661C556.278 396.821 563.152 411.704 587.408 411.704Z" fill="#FFE7E5"/>
    <path fill-rule="evenodd" clip-rule="evenodd" d="M623.645 386.403L622.788 388.372C619.817 395.205 610.432 409.224 587.408 409.224C575.799 409.224 568.631 405.68 564.183 401.504C559.693 397.288 557.762 392.213 557.028 388.843L556.605 386.901H550.34L521.08 405.111L438.575 677.106H582.133L636.296 390.1L623.645 386.403ZM552.788 391.859C553.934 395.779 556.296 400.833 560.903 405.16C566.362 410.285 574.757 414.185 587.408 414.185C610.967 414.185 621.998 400.732 626.297 392.338L630.691 393.622L578.127 672.145H445.159L525.171 408.372L551.702 391.859H552.788Z" fill="#722F2B"/>
    <path d="M584.982 536.963C591.773 492.317 615.301 419.144 626.217 388.141C646.835 391.859 692.68 406.245 711.117 434.028C729.55 461.807 754.373 553.912 764.481 596.493C775.395 634.938 775.395 677.106 734.16 677.106H547.383C527.978 638.659 534.043 620.057 540.105 612.615C544.957 606.663 566.482 601.865 576.635 600.214C579.274 577.997 582.176 555.399 584.982 536.963Z" fill="#FFE7E5"/>
    <path fill-rule="evenodd" clip-rule="evenodd" d="M624.627 385.334L626.641 385.699C637.126 387.589 653.937 392.172 670.483 399.799C686.975 407.404 703.53 418.181 713.122 432.635C717.892 439.818 722.98 451 728.069 464.236C733.174 477.518 738.339 493.024 743.236 508.966C753.02 540.826 761.761 574.521 766.825 595.854C772.307 615.185 775.178 635.838 771.23 651.823C769.238 659.883 765.482 666.887 759.335 671.862C753.182 676.839 744.88 679.586 734.16 679.586H545.907L545.229 678.243C525.616 639.387 531.277 619.575 538.243 611.026C539.829 609.079 542.521 607.474 545.439 606.135C548.442 604.756 552.022 603.511 555.706 602.42C562.269 600.475 569.341 598.968 574.449 598.071C577.029 576.441 579.851 554.548 582.586 536.582C589.416 491.675 613.021 418.303 623.935 387.301L624.627 385.334ZM627.806 390.964C616.618 423.003 593.989 493.878 587.379 537.344C584.581 555.742 581.681 578.307 579.045 600.513L578.824 602.368L577.018 602.662C572.012 603.478 564.194 605.069 557.058 607.183C553.485 608.241 550.142 609.413 547.426 610.662C544.627 611.945 542.808 613.175 541.97 614.203C536.871 620.462 530.492 637.519 548.867 674.625H734.16C744.058 674.625 751.219 672.101 756.324 667.969C761.433 663.838 764.726 657.897 766.525 650.607C770.155 635.914 767.575 616.284 762.152 597.184L762.136 597.13L762.125 597.078C757.079 575.829 748.362 542.21 738.608 510.454C733.729 494.572 728.601 479.185 723.552 466.053C718.488 452.874 713.559 442.125 709.109 435.42C700.267 422.092 684.682 411.789 668.488 404.322C653.376 397.354 638.017 392.991 627.806 390.964Z" fill="#722F2B"/>
    <path d="M506.147 536.963C513.909 487.356 540.107 417.077 552.234 388.141C538.086 388.968 504.934 395.828 485.527 416.663C461.27 442.707 422.461 539.444 415.183 549.364C400.63 566.728 288.961 612.96 286.623 621.297C276.922 634.938 287.836 670.904 299.965 677.106H490.381C492.4 650.235 498.385 586.571 506.147 536.963Z" fill="#FFE7E5"/>
    <path fill-rule="evenodd" clip-rule="evenodd" d="M556.006 385.435L554.463 389.118C542.35 418.026 516.255 488.066 508.541 537.355C500.795 586.87 494.818 650.458 492.799 677.296L492.626 679.586H299.391L298.88 679.323C295.228 677.457 291.975 673.556 289.309 668.949C286.604 664.273 284.33 658.555 282.766 652.639C281.202 646.723 280.324 640.508 280.483 634.829C280.64 629.321 281.779 624.063 284.471 620.111C284.702 619.575 285.029 619.129 285.319 618.786C285.721 618.31 286.213 617.842 286.75 617.391C287.822 616.488 289.253 615.487 290.943 614.415C294.337 612.266 299.018 609.672 304.543 606.775C313.667 601.993 325.246 596.311 337.434 590.33C340.025 589.057 342.642 587.773 345.27 586.481C360.289 579.093 375.637 571.447 388.136 564.571C394.385 561.133 399.886 557.907 404.261 555.016C408.642 552.119 411.699 549.682 413.289 547.813C414.055 546.747 415.348 544.375 417.136 540.763C418.926 537.148 421.123 532.478 423.642 527.043C425.041 524.024 426.541 520.774 428.121 517.341C432.223 508.441 436.878 498.334 441.807 487.976C448.638 473.617 456.017 458.72 463.217 445.764C470.391 432.863 477.486 421.7 483.771 414.955C493.839 404.146 507.371 397.052 520.059 392.556C532.755 388.057 544.802 386.09 552.096 385.663L556.006 385.435ZM521.647 397.242C509.368 401.594 496.624 408.348 487.285 418.374C481.441 424.649 474.589 435.347 467.436 448.218C460.31 461.034 452.984 475.823 446.169 490.147C441.256 500.474 436.62 510.536 432.524 519.427C430.938 522.865 429.435 526.132 428.026 529.17C425.504 534.608 423.286 539.327 421.466 543.004C419.681 546.608 418.184 549.407 417.125 550.854L417.077 550.917L417.027 550.979C414.96 553.444 411.363 556.226 406.895 559.183C402.365 562.175 396.736 565.474 390.435 568.942C377.826 575.878 362.385 583.568 347.374 590.95C344.733 592.25 342.108 593.539 339.511 594.812C327.323 600.793 315.816 606.44 306.756 611.189C301.258 614.07 296.717 616.591 293.499 618.631C291.884 619.657 290.663 620.522 289.836 621.218C289.421 621.569 289.152 621.835 288.993 622.026C288.958 622.067 288.932 622.099 288.916 622.124L288.836 622.401L288.586 622.755C286.564 625.597 285.479 629.832 285.333 634.97C285.189 640.065 285.979 645.788 287.447 651.345C288.916 656.899 291.036 662.189 293.486 666.424C295.816 670.453 298.292 673.268 300.574 674.625H488.136C490.315 646.533 496.188 584.911 503.751 536.572C511.241 488.705 535.724 421.921 548.431 390.959C541.501 391.737 531.8 393.644 521.647 397.242Z" fill="#722F2B"/>
    <path d="M652.9 581.609L634.708 505.958L639.56 580.369L549.469 603.677C542.691 605.431 536.491 609.742 534.522 616.602C528.428 637.821 537.674 662.393 544.957 670.904C537.531 662.222 537.682 620.057 546.17 613.855C552.964 608.894 637.134 592.772 678.37 585.33L652.9 581.609Z" fill="#722F2B"/>
    <path d="M472.187 486.116L427.313 677.106H407.908L472.187 486.116Z" fill="#722F2B"/>
    <path d="M460.061 677.106C460.061 643.372 508.978 633.284 532.83 632.457C532.83 649.324 541.318 665.943 548.596 677.106H460.061Z" fill="#FFE7E5"/>
    <path fill-rule="evenodd" clip-rule="evenodd" d="M535.256 629.892L532.748 629.979C520.624 630.398 502.102 633.164 486.522 640.171C471.015 647.148 457.635 658.738 457.635 677.106V679.586H553.129L550.615 675.729C543.409 664.675 535.256 648.568 535.256 632.457V629.892ZM530.466 635.049C531.176 649.849 537.794 664.112 544.154 674.625H462.585C463.71 660.62 474.379 651.054 488.477 644.711C502.323 638.485 518.796 635.724 530.466 635.049Z" fill="#722F2B"/>
    <path d="M224.769 677.106C224.769 647.121 263.286 636.912 284.197 636.178C284.197 651.171 293.789 670.124 298.752 677.106H224.769Z" fill="#FFE7E5"/>
    <path fill-rule="evenodd" clip-rule="evenodd" d="M286.623 633.61L284.115 633.7C273.406 634.075 258.178 636.866 245.539 643.465C232.892 650.066 222.344 660.791 222.344 677.106V679.586H303.514L300.713 675.648C298.365 672.34 294.816 666.035 291.858 658.7C288.89 651.342 286.623 643.204 286.623 636.178V633.61ZM281.859 638.781C282.325 646.035 284.634 653.801 287.371 660.59C289.549 665.995 292.055 670.91 294.258 674.625H227.293C228.281 662.29 236.636 653.681 247.745 647.882C258.682 642.173 271.868 639.447 281.859 638.781Z" fill="#722F2B"/>
    <path d="M608.025 331.092L621.365 389.379C647.563 389.379 676.347 404.263 686.859 411.704C692.922 373.257 669.878 357.136 656.538 327.371C643.196 297.606 654.112 228.155 586.194 228.155C531.859 228.155 523.935 277.764 526.765 302.567C551.021 295.62 565.17 269.908 569.213 257.918C571.639 264.12 592.257 319.929 599.534 306.288C606.812 292.645 617.726 288.924 623.791 306.288C628.643 320.176 615.3 328.611 608.025 331.092Z" fill="#722F2B"/>
    <path d="M509.786 400.542C526.278 383.675 532.83 344.733 534.043 327.371C537.924 356.143 553.447 367.469 560.725 369.536L557.086 389.379C535.74 388.389 516.657 396.407 509.786 400.542Z" fill="#722F2B"/>
    <path d="M717.182 677.106C723.002 637.418 752.352 612.201 766.908 605.173C774.771 637.601 772.97 677.106 739.012 677.106H717.182Z" fill="#722F2B"/>
    <path d="M139.454 200.732C139.454 195.088 143.952 190.513 149.5 190.513H338.85C344.396 190.513 348.894 195.088 348.894 200.732V305.187C348.894 310.831 344.396 315.406 338.85 315.406H149.5C143.952 315.406 139.454 310.831 139.454 305.187V200.732Z" fill="#FFE7E5"/>
    <path fill-rule="evenodd" clip-rule="evenodd" d="M137.444 200.732C137.444 193.959 142.842 188.469 149.5 188.469H338.849C345.507 188.469 350.904 193.959 350.904 200.732V305.187C350.904 311.959 345.507 317.448 338.849 317.448H149.5C142.842 317.448 137.444 311.959 137.444 305.187V200.732ZM149.5 192.556C145.061 192.556 141.463 196.217 141.463 200.732V305.187C141.463 309.702 145.061 313.36 149.5 313.36H338.849C343.286 313.36 346.885 309.702 346.885 305.187V200.732C346.885 196.217 343.286 192.556 338.849 192.556H149.5Z" fill="#722F2B"/>
    <path d="M285.663 248.001L234.784 291.897V304.452C234.784 310.096 239.282 314.671 244.83 314.671H338.847C344.395 314.671 348.893 310.096 348.893 304.452V287.109L298.268 247.68C294.515 244.759 289.267 244.892 285.663 248.001Z" fill="#722F2B"/>
    <path d="M259.119 229.337C259.119 236.983 253.025 243.181 245.508 243.181C237.991 243.181 231.897 236.983 231.897 229.337C231.897 221.69 237.991 215.491 245.508 215.491C253.025 215.491 259.119 221.69 259.119 229.337Z" fill="#DC8881"/>
    <path d="M191.031 247.955L139.454 291.897V305.187C139.454 310.831 143.952 315.406 149.5 315.406H289.674L203.628 247.708C199.893 244.767 194.651 244.871 191.031 247.955Z" fill="#FFE7E5"/>
    <path fill-rule="evenodd" clip-rule="evenodd" d="M202.398 249.323C199.41 246.973 195.216 247.055 192.321 249.522L141.463 292.851V305.187C141.463 309.702 145.061 313.36 149.5 313.36H283.79L202.398 249.323ZM189.74 246.388C194.084 242.689 200.375 242.564 204.856 246.089L295.555 317.448H149.5C142.842 317.448 137.444 311.959 137.444 305.187V290.942L189.74 246.388Z" fill="#722F2B"/>
    <path d="M346.957 495.725L414.67 652.958C418.069 660.851 412.414 669.713 403.982 669.713H197.359C192.614 669.713 188.34 666.778 186.547 662.284L123.771 505.052C120.634 497.197 126.286 488.596 134.583 488.596H336.266C340.897 488.596 345.089 491.392 346.957 495.725Z" fill="#FFE7E5"/>
    <path fill-rule="evenodd" clip-rule="evenodd" d="M336.269 491.077C339.937 491.077 343.257 493.291 344.736 496.724L412.449 653.959C415.143 660.212 410.664 667.232 403.982 667.232H197.359C193.6 667.232 190.214 664.907 188.793 661.349L126.017 504.114C123.532 497.89 128.009 491.077 134.584 491.077H336.269ZM349.175 494.724C346.922 489.494 341.86 486.116 336.269 486.116H134.584C124.562 486.116 117.738 496.503 121.525 505.988L184.301 663.223C186.467 668.649 191.628 672.193 197.359 672.193H403.982C414.167 672.193 420.995 661.49 416.888 651.959L349.175 494.724Z" fill="#722F2B"/>
    <path d="M283.846 566.576C280.048 557.57 271.376 551.738 261.786 551.738C244.516 551.738 232.887 569.815 239.726 586.032L241.431 590.071C245.229 599.077 253.9 604.909 263.491 604.909C280.761 604.909 292.39 586.832 285.551 570.618L283.846 566.576Z" fill="#722F2B"/>
    <path d="M200.603 684.667H559.198C565.032 684.667 569.761 679.834 569.761 673.866C569.761 667.901 565.032 663.068 559.198 663.068H200.603C193.034 663.068 187.922 670.967 190.882 678.09C192.538 682.078 196.366 684.667 200.603 684.667Z" fill="#722F2B"/>
    <path d="M26.0132 477.866C22.9284 552.641 68.4853 634.508 94.344 669.808C95.6942 671.652 97.8121 672.697 100.064 672.697H119.289C123.651 672.697 127.028 668.731 126.454 664.311C109.325 532.402 61.8526 483.121 34.0532 472.048C30.1068 470.475 26.1917 473.538 26.0132 477.866Z" fill="#FFE7E5"/>
    <path fill-rule="evenodd" clip-rule="evenodd" d="M33.1727 474.36C31.0285 473.506 28.5568 475.056 28.4366 477.969C26.9153 514.847 37.3941 553.62 51.5567 587.669C65.7109 621.699 83.4637 650.817 96.2854 668.323C97.1608 669.517 98.548 670.216 100.064 670.216H119.289C122.175 670.216 124.431 667.58 124.049 664.637C106.965 533.074 59.7416 484.94 33.1727 474.36ZM23.5896 477.76C23.8264 472.02 29.1851 467.448 34.9336 469.736C63.9632 481.298 111.685 531.733 128.858 663.984C129.624 669.881 125.126 675.177 119.289 675.177H100.064C97.076 675.177 94.2271 673.787 92.4026 671.296C79.3654 653.499 61.4104 624.036 47.0925 589.611C32.7833 555.209 22.0261 515.66 23.5896 477.76Z" fill="#722F2B"/>
    <path d="M171.565 433.277C111.726 487.968 99.7439 616.142 99.9179 666.471C99.9317 670.485 103.154 673.602 107.081 673.602H124.881C127.575 673.602 130.078 672.03 131.324 669.588C191.216 552.184 185.054 479.28 182.883 438.635C182.564 432.662 175.926 429.289 171.565 433.277Z" fill="#722F2B"/>
    <path d="M218.813 547.702C171.634 570.757 134.456 627.738 117.28 662.353C114.893 667.162 118.387 672.697 123.661 672.697H144.821C146.224 672.697 147.61 672.278 148.779 671.486C200.184 636.608 221.481 584.775 227.589 554.719C228.67 549.396 223.611 545.357 218.813 547.702Z" fill="#FFE7E5"/>
    <path fill-rule="evenodd" clip-rule="evenodd" d="M225.214 554.214C225.885 550.911 222.855 548.474 219.859 549.938C196.712 561.25 175.888 580.959 158.665 602.27C141.458 623.563 127.964 646.302 119.442 663.473C117.919 666.544 120.099 670.216 123.661 670.216H144.821C145.756 670.216 146.675 669.936 147.438 669.419C198.175 634.992 219.199 583.815 225.214 554.214ZM217.767 545.463C224.366 542.237 231.456 547.881 229.963 555.225C223.763 585.738 202.192 638.221 150.12 673.551C148.546 674.62 146.691 675.177 144.821 675.177H123.661C116.676 675.177 111.867 667.776 115.116 661.229C123.771 643.789 137.454 620.728 154.925 599.113C172.38 577.513 193.735 557.206 217.767 545.463Z" fill="#722F2B"/>
    <path fill-rule="evenodd" clip-rule="evenodd" d="M51.5119 500.986C61.4358 514.757 70.7844 533.615 79.1673 554.018C84.8451 567.838 90.1007 582.42 94.8081 596.7L99.4919 581.403L104.122 582.885L97.4211 604.767C101.724 618.291 105.506 631.366 108.656 643.062C111.566 653.866 113.938 663.5 115.682 671.233L110.955 672.348C109.288 664.961 107.037 655.794 104.281 645.505L87.532 637.834L89.515 633.306L102.594 639.298C99.6967 628.79 96.3299 617.334 92.5687 605.553C87.4375 589.478 81.5765 572.81 75.1781 557.121L52.5735 551.967L53.6292 547.125L72.8472 551.507C65.0199 532.995 56.4914 516.259 47.6064 503.929L51.5119 500.986Z" fill="#722F2B"/>
    <path fill-rule="evenodd" clip-rule="evenodd" d="M152.717 517.934C156.225 505.071 159.564 493.432 162.567 483.823C166.054 472.665 169.033 464.426 171.251 460.156L166.967 457.827C164.516 462.544 161.421 471.191 157.946 482.313C154.451 493.498 150.516 507.37 146.402 522.664C143.532 533.335 140.573 544.707 137.612 556.351L130.605 539.517L126.142 541.462L135.619 564.231C132.041 578.443 128.49 592.919 125.121 606.905C119.289 631.119 114.002 653.866 110.07 671.233L114.797 672.351C118.666 655.264 123.849 632.955 129.574 609.166L153.428 596.104L151.138 591.73L131.139 602.681C134.175 590.136 137.34 577.284 140.522 564.653C143.983 550.917 147.465 537.447 150.825 524.927L170.373 512.725L167.845 508.49L152.717 517.934Z" fill="#FFE7E5"/>
    <path fill-rule="evenodd" clip-rule="evenodd" d="M190.748 588.589C196.644 582.322 202.406 576.762 207.823 572.304L204.781 568.439C197.651 574.309 190.041 581.933 182.401 590.425C177.451 595.927 172.474 601.813 167.59 607.844L168.848 599.738L164.057 598.96L161.487 615.517C155.055 623.742 148.877 632.065 143.242 639.931C134.446 652.215 126.966 663.394 121.912 671.345L125.98 674.048C130.843 666.4 137.999 655.691 146.431 643.878H163.782V638.917H150.001C154.93 632.125 160.215 625.072 165.675 618.106C172.111 609.895 178.782 601.813 185.394 594.429L202.235 591.842L201.514 586.935L190.748 588.589Z" fill="#722F2B"/>
    <path d="M129.663 93.9881L132.612 110.759C132.792 111.78 132.401 112.795 131.601 113.391L121.417 120.971C119.226 122.601 120.68 126.225 123.421 125.965L136.396 124.735C137.344 124.645 138.287 125.074 138.877 125.863L147.702 137.658C149.361 139.875 152.75 138.65 152.522 135.915L151.262 120.78C151.188 119.891 151.538 119.037 152.202 118.487L161.266 110.977C163.308 109.285 161.841 105.832 159.178 106.063L147.616 107.065C146.688 107.146 145.766 106.729 145.178 105.964L134.428 91.96C132.67 89.6698 129.166 91.1609 129.663 93.9881Z" fill="#DC8881"/>
    <path d="M75.0164 337.881L71.482 345.832C71.2668 346.316 70.8133 346.628 70.3058 346.639L63.8516 346.803C62.463 346.838 62.0441 348.799 63.2741 349.506L69.0966 352.852C69.5216 353.097 69.7972 353.559 69.8214 354.068L70.1829 361.67C70.2507 363.101 72.0289 363.593 72.712 362.372L76.4924 355.613C76.7143 355.216 77.105 354.96 77.5418 354.927L83.5042 354.459C84.8472 354.353 85.2122 352.46 84.0234 351.764L78.8622 348.745C78.4478 348.5 78.1775 348.051 78.1477 347.553L77.6038 338.444C77.5147 336.956 75.612 336.54 75.0164 337.881Z" fill="#DC8881"/>
</svg>
