<svg width="400" height="400" viewBox="0 0 400 400" fill="none" xmlns="http://www.w3.org/2000/svg">
    <rect width="400" height="400" rx="60" fill="white" fill-opacity="0.5"/>
    <path d="M300.606 76.6667C301.01 69.8287 299.849 62.9887 297.212 56.6667C289.212 37.6061 270.636 27.2121 250.667 17.2727C239.152 11.6061 223.394 3.84849 207.333 6.51516C198.336 8.68537 189.879 12.6766 182.485 18.2424C206.186 21.4573 229.146 28.779 250.333 39.8788C268.951 49.3731 285.924 61.7937 300.606 76.6667Z" fill="#722F2B" fill-opacity="0.85"/>
    <path d="M104.636 109.091C105.091 106.576 105.576 104.273 106.151 102.061C106.364 100.97 106.667 99.697 107.03 98.4848C107.545 96.5758 108.212 94.4545 109.061 91.9394C110.947 86.4223 113.491 81.1521 116.636 76.2424L119.333 72.1515H119.697C123.767 67.3656 128.836 63.529 134.548 60.9115C140.259 58.2939 146.475 56.9588 152.758 57C153.909 57 155.03 57 156.182 57.1515C182.472 59.5934 208.022 67.2037 231.364 79.5454C236.576 82.2121 241.454 85 245.909 87.7879C254.431 93.0797 262.536 99.0163 270.151 105.545C276.97 111.234 283.296 117.488 289.061 124.242C293.057 129.145 295.94 134.858 297.51 140.985C299.079 147.112 299.298 153.507 298.151 159.727C298.151 160.394 297.909 161.091 297.758 161.818V162.152C297.03 165.667 296.212 168.909 295.242 172.121C295.154 172.462 295.043 172.796 294.909 173.121C294.091 175.697 293.394 177.727 292.606 179.576C291.818 181.424 291.424 182.606 290.788 183.909C300.911 180.09 309.588 173.204 315.606 164.212C329.121 143 322.121 113.606 296.848 85.9091C282.272 70.4279 265.105 57.6094 246.121 48.0303C224.622 36.6704 201.17 29.4736 177 26.8182C141.303 23.4242 113.636 32.697 101.061 52.4545C90.9393 68.4545 92.2727 88.8182 104.485 110.03C104.515 109.667 104.576 109.364 104.636 109.091ZM191.091 163.788C191.091 164.121 191.091 164.424 191.091 164.758C191.091 170.636 194.424 175.061 198.879 175.061C203.333 175.061 206.151 171.212 206.576 165.97C207.508 165.705 208.328 165.14 208.909 164.364C209.27 163.886 209.531 163.341 209.679 162.761C209.827 162.181 209.859 161.577 209.771 160.985C209.684 160.393 209.479 159.824 209.17 159.312C208.861 158.799 208.453 158.353 207.97 158C205.324 155.937 202.191 154.592 198.873 154.093C195.556 153.594 192.166 153.958 189.03 155.152C188.036 155.566 187.223 156.321 186.737 157.283C186.251 158.244 186.125 159.347 186.381 160.393C186.637 161.439 187.258 162.359 188.133 162.987C189.008 163.615 190.078 163.91 191.151 163.818L191.091 163.788ZM161.333 156.758C161.95 156.563 162.52 156.241 163.005 155.813C163.491 155.385 163.881 154.861 164.151 154.273C164.398 153.722 164.534 153.128 164.55 152.524C164.567 151.921 164.463 151.32 164.246 150.757C164.029 150.193 163.703 149.679 163.286 149.242C162.87 148.805 162.371 148.455 161.818 148.212C158.681 147.028 155.293 146.668 151.977 147.166C148.661 147.665 145.529 149.006 142.879 151.061C142.087 151.613 141.492 152.403 141.18 153.316C140.867 154.229 140.853 155.218 141.14 156.139C141.427 157.061 142 157.867 142.776 158.441C143.551 159.015 144.489 159.328 145.454 159.333H145.818C146.273 164.515 149.424 168.273 153.515 168.273C157.606 168.273 161.303 163.848 161.303 157.97C161.424 157.576 161.364 157.152 161.333 156.758ZM162.606 180.939C162.373 182.598 162.581 184.289 163.209 185.843C163.836 187.396 164.862 188.756 166.182 189.788C167.499 190.667 169.053 191.121 170.636 191.091C172.691 191.032 174.707 190.525 176.545 189.606C177.642 189.1 178.493 188.178 178.911 187.045C179.329 185.911 179.279 184.658 178.773 183.561C178.266 182.464 177.345 181.613 176.211 181.195C175.077 180.777 173.824 180.827 172.727 181.333L171.636 181.788V181.424C171.668 180.827 171.582 180.23 171.383 179.666C171.184 179.103 170.876 178.584 170.476 178.139C170.077 177.695 169.594 177.333 169.054 177.075C168.515 176.817 167.93 176.668 167.333 176.636C166.736 176.605 166.139 176.691 165.575 176.89C165.012 177.089 164.493 177.397 164.048 177.796C163.604 178.196 163.242 178.679 162.984 179.218C162.726 179.758 162.577 180.342 162.545 180.939H162.606ZM172.727 209.091C173.886 209.308 175.063 209.42 176.242 209.424C181.179 209.261 185.953 207.613 189.939 204.697C190.493 204.391 190.976 203.973 191.359 203.47C191.742 202.967 192.015 202.389 192.162 201.774C192.309 201.159 192.326 200.52 192.212 199.898C192.098 199.276 191.855 198.685 191.499 198.162C191.144 197.639 190.683 197.196 190.146 196.862C189.61 196.527 189.01 196.308 188.384 196.219C187.758 196.129 187.12 196.172 186.511 196.343C185.903 196.514 185.336 196.81 184.848 197.212C174.788 203.97 169.697 197.97 168.848 196.697C168.173 195.696 167.128 195.005 165.944 194.775C164.759 194.545 163.531 194.795 162.53 195.47C161.53 196.145 160.838 197.19 160.608 198.375C160.378 199.56 160.628 200.787 161.303 201.788C164.063 205.566 168.139 208.172 172.727 209.091Z" fill="#722F2B" fill-opacity="0.85"/>
    <path d="M311.091 276.333C301.529 270.145 291.451 264.792 280.97 260.333C279.831 262.698 278.395 264.908 276.697 266.909C282.377 281.486 282.624 297.619 277.394 312.364C268.303 337.364 245.303 351.758 239.606 354.303C237.485 355.13 235.294 355.769 233.061 356.212C232.395 356.248 231.727 356.248 231.061 356.212C215.909 356.212 200.576 319.424 196.182 300.636C195.912 299.432 195.76 298.204 195.727 296.97C195.557 289.72 197.347 282.559 200.909 276.242C193.119 276.986 185.264 275.853 178 272.939C165.121 267.909 156.788 259.909 152.303 248.697L166.091 241.848C166.465 241.652 166.811 241.407 167.121 241.121C167.572 240.713 167.936 240.219 168.192 239.667C168.447 239.115 168.588 238.517 168.606 237.909V234.333C173.625 236.202 178.919 237.226 184.273 237.364H185C194.767 237.252 204.296 234.339 212.455 228.97L212.909 228.667C217.372 225.833 221.446 222.431 225.031 218.545C225.031 218.788 225.728 223.061 226 224.303C219.637 234.879 216.334 243.485 226.818 261C222.049 264.738 217.682 268.963 213.788 273.606C213.581 273.807 213.398 274.03 213.243 274.273L212.394 275.364C207.486 281.432 204.831 289.013 204.879 296.818C204.884 297.45 204.955 298.08 205.091 298.697C210.94 323.727 225.606 347.182 231.121 347.182H231.818C233.247 346.856 234.654 346.441 236.031 345.939C240.667 343.909 261.061 331.061 268.909 309.242C273.97 295.182 273 280.242 265.879 264.758C267.13 263.777 268.287 262.681 269.334 261.485C276.606 253.212 276.515 242.758 269.061 230.394C272.743 226.679 275.702 222.312 277.788 217.515C277.996 216.951 278.168 216.374 278.303 215.788C278.645 214.401 278.898 212.994 279.061 211.576C279.455 207.301 279.21 202.991 278.334 198.788C277.847 196.352 277.573 193.878 277.515 191.394C277.515 190.909 277.515 190.394 277.515 189.879C278.273 188.606 279 187.303 279.667 186C281.273 182.97 282.697 179.727 284.121 176.212C286.073 171.077 287.623 165.799 288.758 160.424C288.758 159.697 289.061 159 289.182 158.273C290.084 153.341 289.904 148.271 288.653 143.416C287.403 138.56 285.112 134.034 281.94 130.152C276.565 123.723 270.655 117.763 264.273 112.333C256.947 106.08 249.146 100.406 240.94 95.3636C236.606 92.6363 231.849 90 227.061 87.4848C204.829 75.7205 180.497 68.4508 155.455 66.0909C154.515 66.0909 153.576 66.0909 152.637 66.0909C147.024 66.0719 141.495 67.4462 136.545 70.0906C131.594 72.7351 127.378 76.5669 124.273 81.2424V81.4545C121.538 85.7177 119.33 90.2965 117.697 95.0909C116.97 97.2121 116.334 99.2121 115.788 101.152C115.485 102.212 115.212 103.333 115.031 104.182C114.515 106.182 114.061 108.303 113.637 110.727C113.061 114.061 112.637 117.091 112.394 120C111.343 129.66 111.813 139.425 113.788 148.939L113.94 149.606C117.667 165.455 122.879 177.152 129.424 184.333C129.97 184.97 133.667 188.909 133.667 188.909C134.397 192.276 135.297 195.603 136.364 198.879V199.182C140.879 212.879 148.182 222.939 158.031 229.061L159.788 230.091V234.788L145.061 242.091H144.818C144.212 242.424 141.273 243.576 138.455 244.697C130.424 247.727 118.303 252.667 111.697 256.212C100.727 262.273 92.3639 267.091 86.1517 271.364C64.3942 286.152 63.6063 299.788 62.6669 315.606C62.5457 317.848 62.3942 320.182 62.2123 322.606C61.6972 328.212 61.3942 330.667 61.2426 335.939C61.1086 341.338 62.517 346.663 65.3027 351.29C68.0883 355.917 72.1357 359.653 76.9699 362.061C98.3055 372.284 120.648 380.256 143.637 385.848C161.407 389.712 179.434 392.285 197.576 393.545C202.243 393.758 206.879 393.879 211.515 393.879C249.806 393.942 287.652 385.67 322.424 369.636C327.333 367.421 331.506 363.847 334.448 359.336C337.391 354.826 338.981 349.567 339.031 344.182C339.212 309.848 330.091 289.636 311.091 276.333ZM145.031 196.485V196.242C144.212 193.667 143.485 190.909 142.818 187.848C142.818 187.333 141.818 176 141.758 175.515C140.043 164.727 140.135 153.728 142.031 142.97C147.311 139.859 153.608 138.965 159.546 140.485C160.687 140.887 161.941 140.819 163.032 140.296C164.123 139.773 164.962 138.838 165.364 137.697C165.766 136.556 165.698 135.302 165.175 134.21C164.652 133.119 163.717 132.281 162.576 131.879C157.358 130.406 151.851 130.292 146.576 131.545C148.958 126.692 152.019 122.203 155.667 118.212C156.152 117.697 156.606 117.212 157.152 116.697C162.975 110.687 170.547 106.668 178.788 105.212C180.364 108.242 181.818 111.273 183.273 114.303C186.751 121.707 190.678 128.892 195.031 135.818C192.365 135.848 189.715 136.235 187.152 136.97C186.203 137.48 185.467 138.311 185.074 139.314C184.681 140.317 184.657 141.427 185.006 142.446C185.356 143.465 186.056 144.327 186.981 144.878C187.907 145.429 188.999 145.633 190.061 145.455C194.246 144.409 198.639 144.535 202.758 145.818C206.306 149.868 210.222 153.581 214.455 156.909C216.394 158.424 218.576 159.939 221.121 161.727C221.925 162.275 222.882 162.55 223.854 162.513C224.825 162.476 225.759 162.129 226.519 161.522C227.278 160.915 227.823 160.081 228.073 159.141C228.323 158.202 228.266 157.207 227.909 156.303C225.948 151.16 225.251 145.62 225.879 140.152C231.626 144.21 235.621 150.295 237.061 157.182C236.179 157.872 235.394 158.677 234.727 159.576C233.043 162.027 231.831 164.771 231.152 167.667C230.812 168.816 230.939 170.053 231.507 171.108C232.074 172.164 233.036 172.953 234.182 173.303C234.596 173.423 235.024 173.484 235.455 173.485C236.437 173.48 237.392 173.159 238.178 172.57C238.963 171.98 239.539 171.154 239.818 170.212C240.219 168.37 240.926 166.608 241.909 165C242.312 164.457 242.857 164.038 243.485 163.788H243.849C244.667 163.788 245.818 165.818 246.152 168.394C246.71 173.005 245.943 177.68 243.941 181.871C241.94 186.062 238.786 189.596 234.849 192.061C232.091 193.606 231 192.061 230.94 192.061C230.709 191.509 230.372 191.009 229.948 190.588C229.523 190.167 229.02 189.834 228.468 189.608C227.915 189.381 227.323 189.266 226.725 189.268C226.127 189.27 225.536 189.39 224.985 189.621C224.434 189.852 223.934 190.189 223.513 190.613C223.092 191.037 222.759 191.54 222.532 192.093C222.306 192.646 222.19 193.238 222.193 193.836C222.195 194.433 222.315 195.025 222.546 195.576C223.278 197.306 224.541 198.76 226.152 199.727C226.152 200 225.909 200.273 225.849 200.545C225.609 201.338 225.326 202.117 225 202.879C224.989 202.969 224.989 203.061 225 203.152C222.219 208.431 218.406 213.099 213.788 216.879C211.979 218.437 210.055 219.855 208.031 221.121L207.728 221.364C200.859 225.9 192.807 228.314 184.576 228.303C178.227 228.157 172.001 226.528 166.394 223.545L165.637 223.152C164.665 222.663 163.724 222.117 162.818 221.515C154.849 216.394 148.849 208.03 145.031 196.485Z" fill="#722F2B" fill-opacity="0.85"/>
</svg>
