<svg width="1060" height="908" viewBox="0 0 1060 908" fill="none" xmlns="http://www.w3.org/2000/svg">
    <path fill-rule="evenodd" clip-rule="evenodd" d="M873.108 16.3736C835.41 37.8989 810 78.482 810 125C810 194.036 865.964 250 935 250C1004.04 250 1060 194.036 1060 125C1060 55.9644 1004.04 0 935 0C928.876 0 922.855 0.440351 916.967 1.29112C916.295 14.4982 905.374 25 892 25C884.455 25 877.691 21.658 873.108 16.3736Z" fill="#BA6159"/>
    <path fill-rule="evenodd" clip-rule="evenodd" d="M974.355 333.213C977.403 317.612 979 301.493 979 285C979 146.929 867.071 35 729 35C590.929 35 479 146.929 479 285C479 423.071 590.929 535 729 535C818.887 535 897.694 487.562 941.751 416.355C933.822 407.507 929 395.817 929 383C929 356.952 948.919 335.556 974.355 333.213Z" fill="#D97F77"/>
    <path fill-rule="evenodd" clip-rule="evenodd" d="M425 908C659.721 908 850 717.721 850 483C850 390.811 820.647 305.477 770.778 235.835C767.307 236.598 763.7 237 760 237C732.386 237 710 214.614 710 187C710 181.151 711.004 175.536 712.85 170.319C637.141 100.587 536.044 58 425 58C190.279 58 0 248.279 0 483C0 717.721 190.279 908 425 908Z" fill="#E39A94"/>
    <rect x="633.509" y="273" width="250" height="70.6674" rx="30" transform="rotate(45 633.509 273)" fill="#C86546" fill-opacity="0.5"/>
    <rect x="878.164" y="680" width="200" height="66.7002" rx="30" transform="rotate(45 878.164 680)" fill="#C86546" fill-opacity="0.5"/>
    <rect width="130" height="61.9013" rx="30" transform="matrix(0.707107 0.707107 0.707107 -0.707107 575 692.852)" fill="#C86546" fill-opacity="0.5"/>
    <rect x="955.123" y="435.736" width="150" height="66.6417" rx="30" transform="rotate(45 955.123 435.736)" fill="#C86546" fill-opacity="0.5"/>
    <rect x="762.638" y="133.312" width="60" height="37.2502" rx="18.6251" transform="rotate(45 762.638 133.312)" fill="#C86546" fill-opacity="0.5"/>
    <rect x="880.01" y="165.939" width="130" height="35.6303" rx="17.8152" transform="rotate(45 880.01 165.939)" fill="#C86546" fill-opacity="0.5"/>
</svg>
