<svg width="660" height="924" viewBox="0 0 660 924" fill="none" xmlns="http://www.w3.org/2000/svg">
    <path fill-rule="evenodd" clip-rule="evenodd" d="M330 432.307C457.095 432.307 560.91 528.546 567.604 649.687H92.3902C92.8212 641.914 93.6525 634.243 94.8625 626.694C97.9489 631.243 103.273 634.249 109.325 634.249C118.868 634.249 126.605 626.777 126.605 617.559C126.605 608.342 118.868 600.87 109.325 600.87C105.823 600.87 102.565 601.877 99.8416 603.607C126.641 505.027 219.523 432.307 330 432.307ZM567.945 664.161C567.918 667.16 567.831 670.144 567.686 673.114H92.3127C92.1678 670.145 92.0847 667.16 92.0575 664.161H567.945ZM567.332 678.85C566.753 686.624 565.772 694.29 564.412 701.831C562.192 700.721 559.671 700.095 556.999 700.095C548.075 700.095 540.84 707.082 540.84 715.702C540.84 724.314 548.063 731.297 556.977 731.308C546.727 762.7 529.688 791.182 507.525 815.151H152.474C118.493 778.401 96.5543 731.042 92.6674 678.85H567.332ZM327.107 597.014C332.981 597.014 337.742 601.613 337.742 607.287C337.742 612.96 332.981 617.559 327.107 617.559C321.232 617.559 316.471 612.96 316.471 607.287C316.471 601.613 321.232 597.014 327.107 597.014ZM63.3115 680.52C73.8258 680.52 82.3492 688.752 82.3492 698.907C82.3492 709.062 73.8258 717.295 63.3115 717.295C52.7971 717.295 44.2737 709.062 44.2737 698.907C44.2737 688.752 52.7971 680.52 63.3115 680.52ZM574.869 576.602C581.808 576.602 587.432 582.034 587.432 588.736C587.432 595.437 581.808 600.87 574.869 600.87C567.931 600.87 562.306 595.437 562.306 588.736C562.306 582.034 567.931 576.602 574.869 576.602ZM389.648 406.636C394.87 406.636 399.103 410.725 399.103 415.768C399.103 420.812 394.87 424.901 389.648 424.901C384.425 424.901 380.192 420.812 380.192 415.768C380.192 410.725 384.425 406.636 389.648 406.636ZM118.669 510.987C123.085 510.987 126.665 514.445 126.665 518.71C126.665 522.976 123.085 526.434 118.669 526.434C114.252 526.434 110.671 522.976 110.671 518.71C110.671 514.445 114.252 510.987 118.669 510.987Z" fill="#E39A94"/>
    <path fill-rule="evenodd" clip-rule="evenodd" d="M211.357 505.151H279.258V518.915H211.357V505.151ZM126.666 505.151H194.566V518.915H126.666V505.151ZM126.666 485.922H194.566V499.686H126.666V485.922ZM126.666 524.38H194.566V538.144H126.666V524.38ZM126.666 543.609H194.566V557.373H126.666V543.609ZM126.666 562.838H194.566V576.602H126.666V562.838ZM296.049 505.151H363.95V518.915H296.049V505.151ZM380.741 505.151H448.642V518.915H380.741V505.151ZM465.433 505.151H533.334V518.915H465.433V505.151ZM465.433 485.922H533.334V499.686H465.433V485.922ZM465.433 524.38H533.334V538.144H465.433V524.38ZM465.433 543.609H533.334V557.373H465.433V543.609ZM465.433 562.838H533.334V576.602H465.433V562.838ZM380.741 485.922H448.642V499.686H380.741V485.922ZM380.741 524.38H448.642V538.144H380.741V524.38ZM380.741 543.609H448.642V557.373H380.741V543.609ZM380.741 562.838H448.642V576.602H380.741V562.838ZM296.049 485.922H363.95V499.686H296.049V485.922ZM296.049 524.38H363.95V538.144H296.049V524.38ZM296.049 543.609H363.95V557.373H296.049V543.609ZM296.049 562.838H363.95V576.602H296.049V562.838ZM211.357 485.922H279.258V499.686H211.357V485.922ZM211.357 524.38H279.258V538.144H211.357V524.38ZM211.357 543.609H279.258V557.373H211.357V543.609ZM211.357 562.838H279.258V576.602H211.357V562.838Z" fill="#D97F77"/>
    <path d="M97.227 543.564L137.685 582.641L136.267 584.01L95.8088 544.934L97.227 543.564ZM156.204 600.526L182.199 625.634L180.781 627.004L154.785 601.896L156.204 600.526ZM330.709 410.506L426.041 502.581L424.622 503.951L329.291 411.875L330.709 410.506ZM474.164 549.06L528.975 601.999L527.557 603.369L472.746 550.43L474.164 549.06ZM146.459 464.276L483.563 789.864L482.145 791.234L145.041 465.646L146.459 464.276Z" fill="#C86546"/>
    <path fill-rule="evenodd" clip-rule="evenodd" d="M480.853 620.029C484.46 624.061 488.067 628.093 491.674 632.124C492.494 633.04 492.856 634.106 492.77 635.347C492.37 641.139 491.969 646.93 491.57 652.721C491.538 653.179 491.29 653.572 490.871 653.829C490.452 654.085 489.98 654.132 489.544 653.962C484.841 652.123 482.166 646.74 485.982 636.256C481.745 632.589 478.696 629.951 474.459 626.285C475.545 623.596 477.308 621.298 480.853 620.029Z" fill="white"/>
    <path fill-rule="evenodd" clip-rule="evenodd" d="M444.271 607.14L455.764 589.106L482.733 619.124L482.526 624.046C482.31 629.204 478.499 633.402 473.234 634.283L470 634.824L460.244 633.546C457.775 633.223 455.802 631.873 454.666 629.731L451.233 623.254C449.239 619.494 448.718 615.166 449.765 611.065L444.271 607.14Z" fill="white"/>
    <path d="M237.909 622.51C240.887 610.955 233.898 599.183 222.297 596.216C210.697 593.249 198.878 600.211 195.899 611.766L192.538 624.804C189.56 636.359 196.549 648.131 208.15 651.098C219.75 654.065 231.569 647.103 234.548 635.548L237.909 622.51Z" fill="white"/>
    <path fill-rule="evenodd" clip-rule="evenodd" d="M239.346 515.727C251.824 512.351 260.574 522.84 258.89 539.154C257.967 548.085 254.109 556.912 248.758 563.625L226.687 628.48V628.482C224.909 642.638 223.333 648.963 219.722 655.288L181.273 722.637C179.675 725.437 176.244 726.67 173.17 725.548C170.096 724.426 168.4 721.323 169.165 718.218L182.961 662.184C184.151 657.347 185.58 653.288 187.679 648.71L201.551 618.452L214.769 564.105C213.619 560.509 213.205 556.199 213.702 551.379C215.387 535.064 226.868 519.103 239.346 515.727Z" fill="white"/>
    <path d="M363.909 556.715C352.295 552.323 339.016 557.439 334.25 568.14C329.484 578.842 335.035 591.077 346.65 595.469L359.755 600.424C371.37 604.815 384.649 599.7 389.415 588.999C394.181 578.297 388.629 566.062 377.015 561.67L363.909 556.715Z" fill="white"/>
    <path fill-rule="evenodd" clip-rule="evenodd" d="M303.323 540.043L356.486 561.636L389.864 568.535C394.914 569.579 399.181 570.756 403.881 572.755L454.697 594.364L449.423 601.466L376.774 597.611C369.339 597.217 363.014 594.517 350.294 587.311L350.291 587.31L283.195 566.494C274.471 566.751 264.843 564.591 256.832 560.059C242.198 551.781 238.497 538.725 248.564 530.897C258.631 523.07 278.655 523.435 293.289 531.713C297.612 534.158 300.981 537.021 303.323 540.043Z" fill="white"/>
    <path d="M235.182 623.001C238.161 611.797 231.171 600.382 219.571 597.505C207.97 594.628 196.151 601.379 193.173 612.583L189.812 625.226C186.833 636.43 193.823 647.845 205.423 650.722C217.024 653.599 228.843 646.848 231.821 635.644L235.182 623.001Z" fill="#542515"/>
    <path fill-rule="evenodd" clip-rule="evenodd" d="M180.101 715.407L174.355 708.247C171.77 705.772 168.514 705.595 165.287 705.601L142.013 705.644C139.146 706.084 137.478 708.381 137.95 711.237C138.789 716.305 139.461 723.193 139.254 728.073L180.101 715.407Z" fill="#FFCBBA"/>
    <path d="M388.532 888.173C511.213 888.173 610.666 869.991 610.666 847.563C610.666 825.134 511.213 806.952 388.532 806.952C265.851 806.952 166.398 825.134 166.398 847.563C166.398 869.991 265.851 888.173 388.532 888.173Z" fill="#BA6159"/>
    <path fill-rule="evenodd" clip-rule="evenodd" d="M263.322 435.309L273.192 429.747C280.138 425.834 288.473 425.335 295.62 428.405C311.706 435.314 326.386 444.872 339.036 456.672C351.055 467.883 352.567 486.262 342.594 499.903C332.566 513.617 331.79 531.601 340.625 545.479C349.976 560.166 345.356 579.843 330.216 589.814C315.077 599.785 294.947 596.407 284.863 582.204L254.321 518.912L275.867 473.848L263.322 435.309Z" fill="white"/>
    <path fill-rule="evenodd" clip-rule="evenodd" d="M275.696 425.575C265.708 424.178 255.244 427.569 248.146 435.405C235.099 449.81 223.089 465.061 212.201 481.052C192.57 509.879 196.124 547.976 220.774 572.951L269.062 558.398L278.88 579.896C288.735 594.534 308.883 598.905 324.274 589.745C339.664 580.583 344.677 561.236 335.568 546.153C326.96 531.901 328.082 514.046 338.41 500.904C348.684 487.832 347.515 469.468 335.661 457.711C323.183 445.334 308.625 435.088 292.605 427.406C287.311 424.868 281.319 424.261 275.696 425.575Z" fill="#542515"/>
    <path fill-rule="evenodd" clip-rule="evenodd" d="M249.105 481.392L245.282 485.725C235.424 496.9 235.424 513.334 245.282 524.508L265.575 529.671L274.054 490.416L274.1 490.235L249.105 481.392Z" fill="#3E1B10"/>
    <path d="M330 849.06C495.685 849.06 630 824.505 630 794.214C630 763.924 495.685 739.368 330 739.368C164.315 739.368 30 763.924 30 794.214C30 824.505 164.315 849.06 330 849.06Z" fill="#BA6159"/>
    <path d="M409.928 855.971C503.583 849.234 579.506 828.618 579.506 809.924C579.506 791.23 503.583 781.536 409.928 788.273C316.272 795.01 240.349 815.625 240.349 834.32C240.349 853.014 316.272 862.708 409.928 855.971Z" fill="#99342C"/>
    <path fill-rule="evenodd" clip-rule="evenodd" d="M307.481 474.398L309.586 480.617C316.479 500.985 310.697 523.366 294.705 538.218L265.171 531.364L265.4 530.479L275.994 481.436L307.481 474.398Z" fill="#3E1B10"/>
    <path d="M339.22 803.763C461.901 803.763 561.353 791.842 561.353 777.136C561.353 762.431 461.901 750.51 339.22 750.51C216.539 750.51 117.086 762.431 117.086 777.136C117.086 791.842 216.539 803.763 339.22 803.763Z" fill="#99342C"/>
    <path d="M362.608 559.612C351.528 555.221 338.86 560.336 334.313 571.038C329.766 581.739 335.062 593.975 346.142 598.366L358.645 603.321C369.725 607.713 382.393 602.598 386.94 591.896C391.487 581.195 386.19 568.959 375.11 564.568L362.608 559.612Z" fill="#542515"/>
    <path fill-rule="evenodd" clip-rule="evenodd" d="M149.412 715.8C145.738 715.535 144.368 715.328 142.176 713.002C145.602 718.661 145.65 723.108 142.943 726.565C145.099 726.237 147.256 725.908 149.412 725.58C149.163 722.824 149.662 718.557 149.412 715.8Z" fill="#CE837D"/>
    <path fill-rule="evenodd" clip-rule="evenodd" d="M246.25 532.694C236.182 540.522 239.884 553.578 254.518 561.856C262.529 566.388 272.156 568.548 280.881 568.291L347.978 589.107L347.979 589.108C360.699 596.313 367.047 598.727 374.46 599.409L449.839 606.341L457.77 597.119L401.566 574.552C396.825 572.648 392.6 571.376 387.55 570.332L354.172 563.433L301.008 541.84C298.667 538.818 295.298 535.955 290.974 533.51C276.341 525.231 256.317 524.867 246.25 532.694Z" fill="#FAB0AA"/>
    <path fill-rule="evenodd" clip-rule="evenodd" d="M293.635 572.247L347.978 589.107L347.979 589.108C353.043 591.976 357.096 594.085 360.61 595.627C368.3 587.411 369.486 577.369 364.165 565.499C354.084 582.015 314.429 578.699 295.928 554.185C294.614 560.792 293.85 566.813 293.635 572.247Z" fill="#E38D86"/>
    <path fill-rule="evenodd" clip-rule="evenodd" d="M356.656 593.769C364.035 597.44 368.954 598.902 374.46 599.409L426.859 604.227C427.556 601.993 428.088 599.547 428.453 596.889C389.024 600.929 370.969 591.512 374.289 568.639C364.74 578.327 358.866 586.702 356.656 593.769Z" fill="#E38D86"/>
    <path fill-rule="evenodd" clip-rule="evenodd" d="M475.572 622.683C475.891 626.748 476.211 630.813 476.53 634.879C473.953 638.072 471.375 641.265 468.798 644.458C468.478 644.856 467.996 645.043 467.479 644.969C466.962 644.895 466.557 644.582 466.369 644.111C465.259 641.326 466.371 637.641 471.873 633.711C471.118 630.016 470.574 627.357 469.819 623.662C471.432 622.592 473.242 622.002 475.572 622.683Z" fill="#F5A69F"/>
    <path fill-rule="evenodd" clip-rule="evenodd" d="M475.295 620.999C477.33 626.103 479.366 631.208 481.401 636.313C479.27 641.615 477.138 646.917 475.007 652.219C474.829 652.662 474.461 652.963 473.979 653.06C473.497 653.157 473.036 653.022 472.689 652.685C469.536 649.61 469.011 644.218 474.951 636.549C472.503 632.082 470.741 628.869 468.294 624.402C469.939 622.425 472.03 620.993 475.295 620.999Z" fill="#F5A69F"/>
    <path fill-rule="evenodd" clip-rule="evenodd" d="M478.196 623.026C481.076 628.577 483.957 634.129 486.838 639.681C485.006 645.988 483.175 652.294 481.345 658.601C481.214 659.051 480.889 659.38 480.429 659.527C479.97 659.673 479.505 659.597 479.123 659.311C475.001 656.234 473.607 650.137 479.576 640.633C476.302 635.846 473.946 632.401 470.672 627.614C472.306 625.205 474.506 623.366 478.196 623.026Z" fill="#FFCBBA"/>
    <path fill-rule="evenodd" clip-rule="evenodd" d="M478.403 620.709C482.297 624.83 486.191 628.95 490.085 633.069C490.97 634.005 491.408 635.095 491.411 636.362C491.423 642.281 491.435 648.2 491.447 654.118C491.448 654.585 491.228 654.987 490.827 655.249C490.427 655.511 489.959 655.559 489.51 655.385C484.677 653.506 481.618 648.005 484.687 637.292C480.189 633.545 476.952 630.849 472.454 627.102C473.349 624.354 474.948 622.006 478.403 620.709Z" fill="#FFCBBA"/>
    <path fill-rule="evenodd" clip-rule="evenodd" d="M444.271 608.403L456.084 592.496L480.977 619.841L480.781 624.538C480.574 629.46 476.937 633.466 471.912 634.308L468.826 634.824L459.516 633.604C457.159 633.296 455.276 632.008 454.192 629.964L450.915 623.782C449.013 620.194 448.515 616.063 449.514 612.149L444.271 608.403Z" fill="#542515"/>
    <path fill-rule="evenodd" clip-rule="evenodd" d="M457.139 629.46L458.216 633.404C459.567 638.354 459.637 643.549 458.418 648.531C457.394 652.721 461.431 650.859 463.284 649.702C467.136 647.296 467.872 642.127 464.836 638.806C463.084 636.889 466.08 632.98 467.158 630.772C464.528 628.179 461.123 627.939 457.139 629.46Z" fill="#FFCBBA"/>
    <path fill-rule="evenodd" clip-rule="evenodd" d="M406.942 745.573L413.754 761.448L445.093 744.093L432.413 730.832C423.96 721.992 402.035 734.138 406.942 745.573Z" fill="white"/>
    <path fill-rule="evenodd" clip-rule="evenodd" d="M406.942 745.573L413.754 761.448L413.925 761.353L414.317 760.535C413.361 758.445 412.847 756.192 412.805 753.907C412.763 751.623 413.193 749.353 414.071 747.232C414.948 745.11 416.256 743.179 417.916 741.551C419.576 739.924 421.556 738.633 423.74 737.754L427.58 736.208L420.776 728.226C412.202 730.127 403.694 738.005 406.942 745.573Z" fill="#FFA49C"/>
    <path d="M430.737 767.615C421.045 769.699 413.227 765.612 413.277 758.488C413.326 751.363 421.223 743.898 430.916 741.815C440.608 739.731 448.426 743.818 448.376 750.943C448.327 758.067 440.43 765.532 430.737 767.615Z" fill="white"/>
    <path d="M430.77 762.818C424.682 764.127 419.771 761.56 419.803 757.085C419.834 752.609 424.795 747.921 430.883 746.612C436.971 745.303 441.882 747.87 441.851 752.345C441.819 756.821 436.859 761.51 430.77 762.818Z" fill="#EA4335"/>
    <path d="M428.769 754.295C426.39 754.806 424.471 753.803 424.483 752.054C424.495 750.305 426.434 748.472 428.813 747.961C431.193 747.449 433.112 748.453 433.1 750.202C433.087 751.951 431.149 753.783 428.769 754.295Z" fill="white"/>
    <path fill-rule="evenodd" clip-rule="evenodd" d="M235.135 771.928L233.645 789.053L198.325 781.727L206.228 765.369C211.496 754.465 236.208 759.594 235.135 771.928Z" fill="white"/>
    <path fill-rule="evenodd" clip-rule="evenodd" d="M235.135 771.928L233.645 789.053L233.453 789.013L232.822 788.348C233.074 786.077 232.854 783.779 232.175 781.59C231.495 779.402 230.371 777.366 228.867 775.603C227.362 773.84 225.509 772.384 223.415 771.321C221.32 770.259 219.028 769.611 216.671 769.415L212.525 769.071L216.493 759.468C225.26 758.759 235.845 763.764 235.135 771.928Z" fill="#FFA49C"/>
    <path d="M219.411 799.916C229.3 799.053 235.46 792.863 233.169 786.09C230.878 779.318 221.004 774.527 211.114 775.39C201.225 776.253 195.065 782.443 197.356 789.216C199.647 795.988 209.521 800.779 219.411 799.916Z" fill="white"/>
    <path d="M217.868 795.356C224.08 794.814 227.949 790.926 226.51 786.672C225.071 782.418 218.869 779.408 212.657 779.95C206.445 780.492 202.576 784.38 204.015 788.635C205.454 792.889 211.656 795.898 217.868 795.356Z" fill="#EA4335"/>
    <path d="M217.087 786.647C219.515 786.435 221.027 784.915 220.464 783.253C219.902 781.59 217.478 780.414 215.051 780.626C212.623 780.838 211.111 782.357 211.674 784.02C212.236 785.682 214.66 786.858 217.087 786.647Z" fill="white"/>
    <path fill-rule="evenodd" clip-rule="evenodd" d="M231.979 729.558C218.561 731.417 207.724 731.257 197.555 729.051L181.248 725.512C166.77 722.371 144.252 728.564 131.12 739.299L127.058 742.62C114.082 753.226 115.168 764.409 129.473 767.512L152.137 772.43C161.788 774.524 172.074 774.675 184.81 772.911L435.012 738.246C447.748 736.482 457.575 733.543 466.227 728.914L486.546 718.041C499.372 711.178 497.158 700.153 481.619 693.496L476.754 691.412C461.027 684.676 437.615 684.846 424.635 691.792L410.015 699.615C400.899 704.493 390.544 707.589 377.127 709.448L231.979 729.558Z" fill="#EA4335"/>
    <path fill-rule="evenodd" clip-rule="evenodd" d="M230.98 722.832C217.563 724.691 206.726 724.531 196.557 722.325L180.25 718.787C165.772 715.646 143.253 721.839 130.121 732.573L126.059 735.894C113.084 746.501 114.169 757.683 128.474 760.787L151.138 765.704C160.789 767.798 171.076 767.95 183.811 766.186C267.212 754.631 350.612 743.075 434.013 731.521C446.749 729.756 456.576 726.818 465.229 722.188L485.548 711.316C498.373 704.453 496.16 693.427 480.62 686.771L475.756 684.687C460.029 677.95 436.616 678.121 423.636 685.066L409.016 692.89C399.9 697.768 389.546 700.863 376.128 702.722L230.98 722.832Z" fill="white"/>
    <path d="M335.756 737.661C378.805 731.696 413.098 722.783 412.351 717.753C411.604 712.723 376.1 713.481 333.05 719.446C290.001 725.411 255.708 734.324 256.455 739.354C257.202 744.383 292.706 743.625 335.756 737.661Z" fill="#FCD6D6"/>
    <path fill-rule="evenodd" clip-rule="evenodd" d="M403.49 646.446L400.879 649.928L351.064 707.915H364.899L401.378 661.113C401.383 675.878 404.823 690.125 415.929 701.264L411.049 649.397L403.49 646.446Z" fill="white"/>
    <path fill-rule="evenodd" clip-rule="evenodd" d="M405.637 650.528L350.647 720.289C341.247 727.996 328.534 731.223 316.373 728.988C304.211 726.753 294.038 719.321 288.945 708.95L317.641 651.593L395.694 601.424L415.875 602.461L405.637 650.528Z" fill="#B81204"/>
    <path fill-rule="evenodd" clip-rule="evenodd" d="M505.072 773.766L426.653 707.027C405.138 688.717 407.373 657.64 409.725 627.376C411.73 601.56 423.865 593.315 434.993 614.62L512.621 763.255L505.072 773.766Z" fill="white"/>
    <path fill-rule="evenodd" clip-rule="evenodd" d="M492.774 759.835C496.776 761.324 501.308 759.555 503.016 755.837L506.671 747.875C507.088 746.965 507.832 746.341 508.838 746.053C509.844 745.766 510.902 745.807 511.717 746.435L517.233 750.686C519.108 752.131 520.209 754.135 519.644 756.352L519.375 757.407C518.887 759.326 519.458 761.049 520.502 762.762L526.407 772.445C528.833 776.423 532.577 778.741 536.951 780.749L561.443 791.991C563.188 792.793 564.283 794.276 564.448 796.098L565.219 804.665L562.177 814.981L543.386 806.417C537.841 803.889 531.838 807.474 526.231 805.072L497.751 792.871L475.346 787.766L484.909 774.036L488.157 762.055C488.412 761.116 489.018 760.402 489.933 759.962C490.848 759.523 491.817 759.479 492.774 759.835Z" fill="white"/>
    <path fill-rule="evenodd" clip-rule="evenodd" d="M500.421 773.582L422.001 706.843C400.487 688.534 402.721 657.456 405.073 627.192C407.079 601.377 419.214 593.131 430.342 614.437L507.97 763.071L500.421 773.582Z" fill="#F5A69F"/>
    <path fill-rule="evenodd" clip-rule="evenodd" d="M432.654 715.909L422.001 706.843C400.487 688.534 402.721 657.456 405.073 627.192C405.884 616.763 408.348 609.204 411.73 605.299C415.799 600.603 421.198 601.198 426.649 608.465H426.649C427.882 610.109 429.118 612.094 430.342 614.437L438.945 630.91C424.577 657.43 422.544 688.248 432.654 715.909Z" fill="#E38D86"/>
    <path fill-rule="evenodd" clip-rule="evenodd" d="M486.203 769.395L494.839 772.609C498.842 774.099 503.374 772.329 505.081 768.611C516.337 744.091 517.196 770.548 518.388 772.098L528.473 785.22C531.328 788.935 534.631 791.536 539.017 793.523L558.401 802.307C560.151 803.1 561.241 804.591 561.406 806.414L562.177 814.98L545.452 819.191C539.507 820.688 533.905 820.249 528.296 817.846L499.816 805.645L468.776 797.326L467.953 788.897L481.587 771.616C482.2 770.838 482.447 769.963 483.362 769.523C484.277 769.083 485.246 769.039 486.203 769.395Z" fill="white"/>
    <path fill-rule="evenodd" clip-rule="evenodd" d="M485.38 760.967L494.016 764.181C498.018 765.67 502.551 763.901 504.258 760.182L507.913 752.221C508.33 751.311 509.074 750.686 510.08 750.399C511.086 750.112 512.074 750.243 512.959 750.781L514.295 751.593C516.33 752.831 517.271 755.041 516.706 757.259L516.437 758.314C515.948 760.233 516.334 762.069 517.564 763.669L527.649 776.791C530.505 780.507 533.808 783.108 538.193 785.094L557.577 793.878C559.327 794.671 560.418 796.163 560.582 797.985L561.353 806.551L544.628 810.763C538.684 812.259 533.081 811.82 527.473 809.418L498.993 797.217L467.953 788.897L477.515 775.167L480.764 763.187C481.018 762.248 481.624 761.534 482.539 761.094C483.454 760.654 484.423 760.61 485.38 760.967Z" fill="#E64537"/>
    <path fill-rule="evenodd" clip-rule="evenodd" d="M472.592 781.524L476.213 775.927L498.482 782.072C504.939 783.854 510.623 787.542 514.696 792.594C516.836 795.248 519.515 797.475 522.576 799.145L512.813 795.476C507.95 794.448 505.122 788.519 496.163 787.609L472.592 781.524Z" fill="white"/>
    <path d="M520.449 775.377C519.348 776.286 517.672 776.18 516.706 775.14C515.739 774.101 515.848 772.52 516.948 771.611C517.885 770.84 518.937 770.106 520.056 769.42C521.266 768.677 522.533 767.997 523.8 767.391C525.107 766.766 526.706 767.259 527.371 768.492C528.037 769.725 527.517 771.233 526.21 771.858C525.065 772.406 523.959 772.996 522.956 773.612C522.043 774.172 521.193 774.763 520.449 775.377ZM540.058 791.327C539.235 792.469 537.584 792.764 536.371 791.985C535.158 791.207 534.842 789.649 535.665 788.507C536.366 787.534 537.188 786.57 538.088 785.638C539.036 784.655 540.087 783.691 541.181 782.776C542.276 781.861 543.952 781.958 544.925 782.992C545.897 784.027 545.798 785.608 544.703 786.522C543.767 787.305 542.856 788.142 542.02 789.008C541.283 789.773 540.615 790.552 540.058 791.327ZM528.816 785.72C527.992 786.863 526.341 787.157 525.128 786.379C523.915 785.6 523.599 784.043 524.422 782.901C525.167 781.867 526.052 780.842 527.023 779.85C527.073 779.799 527.124 779.751 527.177 779.705C528.206 778.666 529.292 777.692 530.379 776.805C531.485 775.901 533.161 776.016 534.122 777.06C535.082 778.105 534.964 779.685 533.858 780.588C532.85 781.411 531.896 782.26 531.058 783.103L530.935 783.239C530.137 784.054 529.415 784.889 528.816 785.72Z" fill="white"/>
    <path fill-rule="evenodd" clip-rule="evenodd" d="M441.946 650.76C452.928 647.687 457.902 634.857 453.001 622.251L447.446 607.965C442.544 595.358 429.547 587.558 418.565 590.631C407.583 593.704 402.608 606.534 407.51 619.141L413.065 633.426C417.967 646.033 430.963 653.833 441.946 650.76Z" fill="white"/>
    <path fill-rule="evenodd" clip-rule="evenodd" d="M444.816 638.991C452.289 636.9 455.674 628.17 452.339 619.591L448.559 609.871C445.223 601.292 436.38 595.984 428.906 598.075C421.433 600.167 418.048 608.896 421.384 617.475L425.164 627.196C428.5 635.775 437.343 641.083 444.816 638.991Z" fill="#E64537"/>
    <path fill-rule="evenodd" clip-rule="evenodd" d="M448.521 637.195C453.31 633.68 455.058 626.585 452.339 619.591L448.559 609.871C445.463 601.91 437.625 596.767 430.54 597.738C437.963 600.858 450.424 629.334 448.521 637.195Z" fill="#EA4335"/>
    <path fill-rule="evenodd" clip-rule="evenodd" d="M301.239 565.365C303.075 568.848 304.278 572.646 304.673 576.598C305.963 589.486 298.268 600.034 286.555 603.122C288.207 623.928 295.912 642.739 307.507 639.137L306.53 651.462L240.729 698.313C250.24 635.739 244.336 635.199 217.675 556.163L212.204 539.943L244.627 516.105L284.635 530.409L301.239 565.365Z" fill="white"/>
    <path fill-rule="evenodd" clip-rule="evenodd" d="M304.673 576.598C305.963 589.486 298.268 600.034 286.555 603.122C287.208 611.354 288.811 619.272 291.225 625.615C287.987 619.943 279.18 612.141 272.102 624.285C264.215 637.815 260.509 653.245 261.422 668.746L244.985 690.063L242.497 686.03C248.767 639.31 243.463 630.824 223.232 572.408L245.48 545.398C252.719 585.501 304.699 582.679 304.673 576.598Z" fill="#FCD6D6"/>
    <path fill-rule="evenodd" clip-rule="evenodd" d="M284.577 644.268L372.566 603.342L381.864 625.577C369.066 678.813 377.724 627.567 348.068 674.108L311.217 731.94C219.605 763.544 219.485 674.545 284.577 644.268Z" fill="#E64537"/>
    <path fill-rule="evenodd" clip-rule="evenodd" d="M175.852 729.773H169.612L160.12 731.141C156.184 731.708 152.136 730.813 150.151 728.946C146.694 725.694 147.054 721.43 146.668 717.189C146.244 712.517 149.885 710.015 154.72 709.567L175.212 707.664L181.664 715.729C186.743 722.076 182.458 729.773 175.852 729.773Z" fill="#542515"/>
    <path fill-rule="evenodd" clip-rule="evenodd" d="M337.236 691.106L311.217 731.941C269.504 746.33 246.571 734.615 240.375 715.359C250.181 722.049 262.43 724.64 274.316 722.434C287.339 720.017 298.559 712.097 304.897 700.846L324.317 666.37L337.236 691.106Z" fill="#EA4335"/>
    <path fill-rule="evenodd" clip-rule="evenodd" d="M234.839 515.727C247.282 512.351 256.142 522.84 254.629 539.154C253.801 548.085 250.035 556.912 244.755 563.625L223.367 628.48V628.482C221.738 642.638 220.229 648.963 216.684 655.288L178.945 722.637C177.375 725.437 173.958 726.67 170.872 725.548C167.786 724.426 166.057 721.323 166.789 718.218L179.995 662.184C181.135 657.347 182.521 653.288 184.571 648.71L198.125 618.452L210.771 564.105C209.583 560.509 209.123 556.199 209.571 551.379C211.083 535.064 222.396 519.103 234.839 515.727Z" fill="#F8C1B9"/>
    <path fill-rule="evenodd" clip-rule="evenodd" d="M244.755 563.625L223.367 628.48V628.482C221.738 642.638 220.229 648.963 216.684 655.289L178.945 722.637C214.686 646.446 205.138 620.528 191.349 633.581L198.125 618.453C201.889 647.289 226.632 612.153 244.755 563.625Z" fill="#FAB0AA"/>
    <path fill-rule="evenodd" clip-rule="evenodd" d="M276.63 527.547C303.088 577.211 267.883 540.44 255.139 519.864L276.63 527.547Z" fill="#F8C1B9"/>
    <path fill-rule="evenodd" clip-rule="evenodd" d="M283.696 500.641C272.87 508.8 271.937 519.919 276.63 527.547C270.938 529.479 263.259 526.734 253.782 519.379C257.393 515.571 260.408 503.481 260.551 489.751L283.696 500.641Z" fill="#F8C1B9"/>
    <path fill-rule="evenodd" clip-rule="evenodd" d="M276.806 508.099C272.933 514.552 273.233 521.553 276.283 526.958L276.283 526.959C267.83 512.13 261.078 508.409 256.027 515.794C257.998 511.485 259.567 504.653 260.223 496.785C262.421 497.243 264.888 497.896 267.628 498.747C271.739 501.854 274.797 504.971 276.806 508.099Z" fill="#FAB0AA"/>
    <path d="M253.621 702.073C261.059 706.336 273.529 699.311 281.472 686.382C289.416 673.453 289.825 659.516 282.387 655.253C274.948 650.99 262.479 658.015 254.536 670.944C246.592 683.873 246.183 697.81 253.621 702.073Z" fill="#F0574A"/>
    <path fill-rule="evenodd" clip-rule="evenodd" d="M305.44 488.874C307.167 497.282 303.147 506.115 295.391 510.956C292.375 512.839 289.607 515.07 287.15 517.601C285.146 519.665 281.87 519.884 279.805 518.092L272.533 514.858C268.072 512.874 264.237 509.855 261.356 506.059C258.682 502.535 257.553 498.094 258.198 493.631C258.365 492.478 257.73 491.396 256.635 490.969C248.483 487.788 245.834 474.03 252.214 470.034C255.255 468.13 259.239 469.021 261.275 471.702V471.701C264.038 470.308 266.199 467.955 267.281 465.065C269.58 458.929 274.861 454.281 281.399 452.639L283.364 452.146L289.484 455.112C297.814 459.148 304.217 466.053 307.481 474.398C307.244 475.438 306.924 476.459 306.525 477.452C305.042 481.141 304.666 485.104 305.44 488.874Z" fill="#F8C1B9"/>
    <path fill-rule="evenodd" clip-rule="evenodd" d="M305.278 481.991C305 483.803 304.973 485.634 305.202 487.436L297.729 493.057C295.037 492.984 292.785 495.016 292.678 497.616L292.611 499.234C291.863 494.121 292.772 488.909 295.212 484.314L296.372 482.13L297.578 481.393L304.022 480.087L305.278 481.991ZM303.086 502.986C301.294 506.136 298.678 508.905 295.391 510.956C292.375 512.839 289.607 515.07 287.15 517.601C285.146 519.665 281.87 519.884 279.805 518.092C281.887 518.624 284.257 516.887 285.031 514.946C285.807 513.005 284.944 510.811 283.031 509.855L281.066 508.873L291.051 508.277C294.263 509.591 297.986 508.745 300.253 506.185L303.086 502.986Z" fill="#FAB0AA"/>
    <path fill-rule="evenodd" clip-rule="evenodd" d="M260.918 505.453C258.56 502.032 257.59 497.842 258.198 493.631C258.365 492.478 257.73 491.396 256.635 490.969C256.457 490.899 256.282 490.823 256.109 490.743C256.863 490.995 257.689 490.947 258.405 490.61C258.763 490.442 259.083 490.207 259.346 489.918C259.609 489.63 259.809 489.294 259.937 488.93C261.546 484.323 262.11 479.436 261.588 474.601L261.275 471.702V471.701C264.038 470.308 266.199 467.955 267.281 465.065C269.579 458.929 274.86 454.281 281.399 452.639L283.363 452.146L289.484 455.112C297.814 459.148 304.217 466.053 307.481 474.398C307.244 475.438 306.924 476.459 306.524 477.452C305.887 479.04 305.454 480.678 305.229 482.329C302.52 470.72 292.909 459.37 283.169 453.56C273.397 455.801 268.392 469.549 268.713 476.042L264.657 483.707C263.875 485.966 262.848 488.138 261.593 490.188C260.523 491.935 259.825 493.871 259.539 495.882C259.254 497.893 259.388 499.938 259.932 501.899L260.918 505.453Z" fill="#FAB0AA"/>
    <path fill-rule="evenodd" clip-rule="evenodd" d="M285.795 479.948L285.705 483.044C285.675 484.07 285.434 485.08 284.997 486.016C284.56 486.951 283.935 487.794 283.158 488.495C282.381 489.195 281.468 489.74 280.472 490.097C279.476 490.455 278.416 490.617 277.354 490.576L269.908 487.152L268.984 485.795C268.734 485.429 268.408 485.117 268.027 484.879C267.645 484.642 267.217 484.483 266.769 484.414C266.32 484.345 265.862 484.367 265.423 484.479C264.984 484.59 264.574 484.789 264.219 485.062L262.928 486.207L267.471 475.994L268.709 475.947L274.28 474.413L283.088 475.947L285.795 479.948Z" fill="#FAB0AA"/>
    <path fill-rule="evenodd" clip-rule="evenodd" d="M286.975 475.613L285.795 479.948L282.165 477.874C278.113 475.558 273.271 474.899 268.713 476.042L270.945 474.427C273.649 472.47 277.202 471.984 280.363 473.139C282.15 473.792 283.928 474.468 285.698 475.166L285.637 478.064L286.975 475.613Z" fill="#3E1B10"/>
    <path d="M275.888 490.413C280.146 491.184 283.702 489.283 283.83 486.167C283.959 483.051 280.611 479.9 276.353 479.129C272.095 478.358 268.54 480.259 268.411 483.374C268.283 486.49 271.63 489.641 275.888 490.413Z" fill="#3E1B10"/>
    <path d="M275.606 490.837C279.153 491.479 282.116 489.896 282.223 487.3C282.33 484.703 279.541 482.078 275.993 481.435C272.446 480.793 269.483 482.376 269.376 484.972C269.269 487.569 272.058 490.194 275.606 490.837Z" fill="white"/>
    <path d="M275.01 487.586C277.226 487.671 279.094 486.004 279.183 483.864C279.271 481.723 277.545 479.918 275.329 479.833C273.112 479.748 271.244 481.414 271.156 483.555C271.068 485.696 272.793 487.5 275.01 487.586Z" fill="#3E1B10"/>
    <path d="M278.038 486C278.81 486.03 279.461 485.449 279.492 484.703C279.523 483.958 278.922 483.329 278.15 483.3C277.378 483.27 276.727 483.85 276.696 484.596C276.665 485.342 277.266 485.97 278.038 486Z" fill="white"/>
    <path fill-rule="evenodd" clip-rule="evenodd" d="M296.372 482.13L298.514 478.73L298.039 480.345L299.278 478.421C303.373 476.803 305.479 477.089 306.253 478.889L305.14 483.089C304.645 480.673 303.432 480.624 296.372 482.13Z" fill="#3E1B10"/>
    <path d="M300.799 492.928C297.58 493.346 295.063 491.429 295.178 488.645C295.293 485.861 297.995 483.265 301.214 482.847C304.434 482.428 306.95 484.345 306.835 487.129C306.721 489.913 304.018 492.509 300.799 492.928Z" fill="#3E1B10"/>
    <path d="M299.677 493.158C296.995 493.507 294.899 491.91 294.994 489.59C295.09 487.271 297.342 485.108 300.024 484.759C302.706 484.411 304.802 486.008 304.707 488.327C304.611 490.647 302.359 492.81 299.677 493.158Z" fill="white"/>
    <path fill-rule="evenodd" clip-rule="evenodd" d="M299.21 483.409C296.943 484.404 295.269 486.467 295.179 488.645C295.173 488.804 295.175 488.96 295.185 489.112C295.84 490.271 297.089 491.078 298.554 491.135C300.77 491.22 302.639 489.554 302.727 487.413C302.811 485.382 301.262 483.653 299.21 483.409Z" fill="#3E1B10"/>
    <path d="M302.059 489.341C302.699 489.365 303.238 488.884 303.263 488.267C303.289 487.649 302.791 487.128 302.151 487.104C301.512 487.079 300.973 487.56 300.947 488.178C300.922 488.795 301.419 489.316 302.059 489.341Z" fill="white"/>
    <path fill-rule="evenodd" clip-rule="evenodd" d="M291.69 506.346L290.929 505.473C289.843 504.228 288.247 503.809 286.634 504.345L286.408 504.42L286.005 504.211C284.41 503.381 282.657 503.399 280.971 504.263L279.794 504.866C278.95 505.299 278.1 505.443 277.153 505.314L277.051 505.3L278.803 507.66C280.144 509.465 281.935 510.48 284.161 510.696L285.396 510.815C287.329 511.002 289.099 510.45 290.701 509.16L293.761 506.697L293.315 506.822C292.711 506.991 292.096 506.811 291.69 506.346Z" fill="#E64537"/>
    <path fill-rule="evenodd" clip-rule="evenodd" d="M292.608 499.312C292.701 500.095 292.478 500.663 291.196 500.481C290.731 500.978 288.294 500.745 287.178 499.359C286.054 499.316 284.733 499.377 284.498 497.948C284.217 500.691 285.605 499.938 286.704 501.943C287.32 503.068 289.437 503.618 290.272 502.18C290.595 501.622 291.968 501.28 292.54 500.959C293.261 500.555 293.121 499.828 292.608 499.312Z" fill="#FAB0AA"/>
    <path fill-rule="evenodd" clip-rule="evenodd" d="M271.589 493.851C274.869 495.209 278.362 496.301 277.454 498.123C276.545 499.945 273.15 500.322 269.869 498.965C266.589 497.607 264.666 495.03 265.574 493.208C266.483 491.385 268.308 492.494 271.589 493.851ZM292.204 490.826C291.741 494.2 291.43 497.723 290.429 497.23C289.428 496.738 288.992 493.603 289.454 490.228C289.917 486.853 291.104 484.517 292.104 485.009C293.106 485.501 292.666 487.451 292.204 490.826Z" fill="#FFCBBA"/>
    <path fill-rule="evenodd" clip-rule="evenodd" d="M252.143 483.848C250.689 480.96 249.953 478.708 251.08 475.364C251.87 473.021 253.603 471.144 256.873 472.235C259.874 473.236 259.36 479.365 257.845 481.269C257.117 482.184 255.858 482.535 254.738 482.135C253.618 481.735 252.897 480.677 252.961 479.525C253.023 478.374 253.855 477.396 255.013 477.112C256.213 476.818 256.98 475.686 256.779 474.506C256.727 474.204 256.59 473.922 256.382 473.691C256.173 473.46 255.903 473.289 255.6 473.198C251.707 472.026 250.961 480.626 252.143 483.848Z" fill="#FAB0AA"/>
    <path d="M122.676 860.703C137.596 860.703 149.691 857.118 149.691 852.696C149.691 848.273 137.596 844.688 122.676 844.688C107.756 844.688 95.6611 848.273 95.6611 852.696C95.6611 857.118 107.756 860.703 122.676 860.703Z" fill="#BA6159"/>
    <path fill-rule="evenodd" clip-rule="evenodd" d="M312.638 771.034L328.504 820.823L331.258 844.153C332.32 853.144 309.389 850.73 300.832 845.445L286.543 836.62C280.146 832.67 278.06 825.536 279.262 819.087L282.003 804.379L274.715 787.71C272.828 783.393 274.215 778.947 278.219 776.482L301.516 762.141L312.638 771.034Z" fill="white"/>
    <path fill-rule="evenodd" clip-rule="evenodd" d="M318.594 778.057L328.213 839.031C329.635 848.043 312.625 845.458 304.655 840.726L291.129 832.694C285.171 829.156 283.003 822.189 283.702 815.584L285.296 800.523L277.912 784.286C276 780.081 276.976 775.484 280.378 772.676L300.172 756.337L318.594 778.057Z" fill="#E64537"/>
    <path fill-rule="evenodd" clip-rule="evenodd" d="M286.605 791.592L296.73 687.207C301.512 637.913 340.216 624.409 368.168 605.434C392.433 588.962 413.021 602.679 397.128 625.489L357.749 682.008L320.336 761.099L301.83 793.777L286.605 791.592Z" fill="#F8C1B9"/>
    <path fill-rule="evenodd" clip-rule="evenodd" d="M397.128 625.489L354.717 688.417L320.336 761.099L334.326 707.735C338.443 692.031 356.909 662.404 369.068 651.244L397.128 625.489Z" fill="#FAB0AA"/>
    <path fill-rule="evenodd" clip-rule="evenodd" d="M305.434 770.173C314.722 770.026 320.896 776.63 319.001 784.265L315.489 798.414L282.818 792.545L284.977 783.844C286.922 776.007 295.302 770.333 305.434 770.173Z" fill="#E64537"/>
    <path d="M302.811 810.289C301.405 810.576 299.961 809.683 299.586 808.296C299.211 806.909 300.046 805.552 301.451 805.265L302.822 804.97C309.462 803.531 322.051 800.809 325.674 808.765C326.275 810.087 325.689 811.574 324.364 812.085C323.038 812.597 321.475 811.94 320.873 810.618C319.121 806.772 309.381 808.877 304.242 809.989L304.232 809.99C303.902 810.06 303.627 810.12 302.811 810.289ZM301.775 800.159C300.369 800.446 298.925 799.554 298.55 798.167C298.175 796.78 299.01 795.422 300.415 795.135L301.785 794.84C308.426 793.402 321.015 790.68 324.637 798.635C325.24 799.957 324.653 801.444 323.327 801.956C322.002 802.467 320.439 801.81 319.837 800.489C318.086 796.642 308.345 798.748 303.206 799.859L303.196 799.86C302.866 799.931 302.591 799.991 301.775 800.159ZM303.847 820.419C302.442 820.705 300.997 819.813 300.622 818.426C300.247 817.039 301.082 815.681 302.488 815.395L303.858 815.099C310.498 813.661 323.087 810.939 326.71 818.895C327.312 820.217 326.725 821.703 325.4 822.215C324.075 822.727 322.511 822.07 321.909 820.748C320.158 816.901 310.417 819.007 305.278 820.118L305.268 820.119C304.938 820.19 304.663 820.25 303.847 820.419Z" fill="white"/>
    <path fill-rule="evenodd" clip-rule="evenodd" d="M338.776 631.708C341.698 633.201 330.57 645.326 320.759 664.115C310.948 682.903 306.168 701.24 303.246 699.747C300.324 698.254 300.367 677.497 310.178 658.708C319.989 639.92 335.854 630.215 338.776 631.708Z" fill="#FFCBBA"/>
    <path fill-rule="evenodd" clip-rule="evenodd" d="M385.124 642.163L369.834 683.157C367.661 688.984 365.026 693.689 361.165 698.635L332.295 735.618L343.636 688.921L385.124 642.163ZM150.999 719.837L148.806 723.323C146.054 727.698 142.229 731.351 137.67 733.961C133.834 736.156 138.024 737.671 140.173 738.157C144.64 739.167 149.005 736.092 149.373 731.675C149.586 729.127 154.58 728.498 156.974 727.715C157.081 724.087 154.898 721.552 150.999 719.837Z" fill="#FAB0AA"/>
    <path d="M218.961 549.161C223.184 551.274 230.34 546.025 234.944 537.439C239.549 528.853 239.859 520.179 235.636 518.067C231.414 515.955 224.258 521.203 219.653 529.789C215.048 538.376 214.739 547.049 218.961 549.161Z" fill="#FFCBBA"/>
    <path d="M198.734 614.888C202.951 617.442 207.477 619.307 212.157 620.736C216.965 622.205 221.836 623.184 226.671 623.959L224.957 634.131C219.577 633.269 214.185 632.188 208.939 630.585C203.566 628.944 198.249 626.73 193.093 623.607L198.734 614.888Z" fill="#542515"/>
    <path d="M406.647 633.337C414.398 619.314 409.372 602.872 395.421 596.612C381.469 590.353 363.875 596.647 356.123 610.67L347.377 626.493C339.625 640.516 344.651 656.959 358.602 663.218C372.554 669.477 390.148 663.184 397.9 649.16L406.647 633.337Z" fill="white"/>
    <path d="M401.119 631.663C406.394 622.121 402.974 610.932 393.48 606.673C383.986 602.413 372.014 606.696 366.74 616.238L360.788 627.005C355.513 636.547 358.933 647.736 368.427 651.996C377.921 656.255 389.893 651.973 395.167 642.43L401.119 631.663Z" fill="#E64537"/>
    <path fill-rule="evenodd" clip-rule="evenodd" d="M398.866 610.339C404.153 615.565 405.563 623.624 401.73 630.559L394.557 643.534C389.64 652.43 377.881 656.237 368.427 651.995C367.278 651.48 366.215 650.868 365.241 650.176C377.012 648.479 399.234 617.408 398.866 610.339Z" fill="#EA4335"/>
    <path fill-rule="evenodd" clip-rule="evenodd" d="M362.14 612.772C360.079 617.561 357.287 621.472 353.76 624.505C350.723 621.121 347.466 619.859 343.988 620.72C348.67 612.901 351.011 608.991 351.011 608.991C355.503 609.056 359.212 610.316 362.14 612.772Z" fill="white"/>
    <path d="M369.978 630.553C372.033 631.476 375.215 629.074 377.084 625.188C378.952 621.303 378.801 617.406 376.745 616.483C374.689 615.561 371.508 617.963 369.639 621.848C367.771 625.734 367.922 629.631 369.978 630.553Z" fill="white"/>
    <path d="M213.385 632.185C211.12 631.8 209.166 631.842 207.523 632.312C206.023 632.741 204.687 633.571 203.516 634.802L195.659 627.819C198.156 625.196 201.108 623.397 204.514 622.423C207.775 621.49 211.346 621.353 215.224 622.014L213.385 632.185Z" fill="#542515"/>
    <path d="M218.508 620.346L211.705 618.658C210.205 618.287 208.677 619.159 208.292 620.608L206.1 628.854C205.715 630.302 206.618 631.778 208.118 632.15L214.921 633.837C216.421 634.209 217.949 633.336 218.334 631.888L220.526 623.642C220.911 622.194 220.008 620.718 218.508 620.346Z" fill="#542515"/>
    <path d="M428.981 615.522C430.758 615.378 431.962 612.537 431.67 609.178C431.377 605.819 429.699 603.213 427.922 603.357C426.144 603.502 424.941 606.342 425.233 609.701C425.526 613.06 427.204 615.666 428.981 615.522Z" fill="white"/>
    <path d="M350.207 591.089C353.404 587.406 356.975 582.536 359.085 578.255C361.252 573.858 362.928 569.333 364.388 564.815L374.746 567.241C373.121 572.269 371.108 577.891 368.743 582.689C366.321 587.603 363.317 592.385 359.406 596.889L350.207 591.089Z" fill="#542515"/>
    <path d="M370.996 578.656C370.288 580.77 370.063 582.645 370.319 584.282C370.553 585.775 371.22 587.168 372.321 588.458L364.078 595.013C361.732 592.264 360.294 589.192 359.763 585.8C359.255 582.551 359.606 579.116 360.817 575.497L370.996 578.656Z" fill="#542515"/>
    <path d="M359.512 572.175L356.846 578.451C356.258 579.835 356.942 581.416 358.375 581.984L366.53 585.216C367.962 585.784 369.6 585.123 370.188 583.739L372.854 577.463C373.442 576.079 372.757 574.498 371.325 573.93L363.17 570.698C361.738 570.13 360.1 570.791 359.512 572.175Z" fill="#542515"/>
    <path fill-rule="evenodd" clip-rule="evenodd" d="M278.74 774.408L288.53 796.036L288.058 815.117L291.773 795.125L282.61 770.834L280.269 772.766C279.612 773.247 279.102 773.794 278.74 774.408Z" fill="white"/>
    <path d="M449.402 899.364C478.204 899.364 501.553 892.443 501.553 883.905C501.553 875.368 478.204 868.447 449.402 868.447C420.599 868.447 397.25 875.368 397.25 883.905C397.25 892.443 420.599 899.364 449.402 899.364Z" fill="#99342C"/>
    <path fill-rule="evenodd" clip-rule="evenodd" d="M380.902 812.396C389.832 811.431 406.17 812.238 412.326 812.781C416.133 813.116 419.748 812.106 422.484 809.942C430.122 803.903 441.726 803.996 450.969 810.17C463.531 818.563 463.543 821.798 477.962 822.667C481.866 822.902 485.705 824.719 488.517 827.663C491.329 830.607 492.847 834.399 492.691 838.089L451.135 863.593L376.971 841.024L372.337 824.567C371.541 821.74 372.016 819.001 373.72 816.578C375.425 814.155 377.887 812.721 380.902 812.396Z" fill="white"/>
    <path fill-rule="evenodd" clip-rule="evenodd" d="M371.963 822.033L375.124 843.855C379.453 866.748 399.94 885.622 423.886 888.776C459.635 893.484 489.532 871.46 492.691 838.089L471.293 843.978C455.303 848.379 437.286 846.323 421.101 838.251C412.446 833.934 402.703 833.552 394.828 837.219C392.14 838.472 388.872 838.516 385.809 837.342C380.326 835.24 373.784 827.411 371.963 822.033Z" fill="white"/>
    <path fill-rule="evenodd" clip-rule="evenodd" d="M392.831 815.517C397.695 814.965 403.972 816.022 408.578 816.428C414.871 817.592 421.019 815.121 423.084 813.488C428.848 808.931 437.605 809.001 444.579 813.66C454.059 819.994 455.609 822.585 466.489 823.241C469.436 823.418 472.333 824.79 474.455 827.011C476.576 829.233 477.722 832.094 477.604 834.879L461.457 839.323C449.391 842.643 435.794 841.092 423.581 835.001C417.05 831.744 409.698 831.455 403.755 834.222C401.726 835.167 399.261 835.201 396.95 834.315C394.638 833.429 392.689 831.704 391.571 829.553L388.357 823.898C387.386 822.19 387.36 820.291 388.285 818.558C389.21 816.825 390.826 815.744 392.831 815.517Z" fill="#99342C"/>
    <path fill-rule="evenodd" clip-rule="evenodd" d="M433.325 810.118C437.123 810.138 441.076 811.32 444.579 813.66C454.059 819.994 455.609 822.585 466.489 823.241C469.436 823.418 472.333 824.79 474.454 827.011C476.576 829.233 477.722 832.094 477.605 834.879L461.457 839.323C449.391 842.644 435.794 841.092 423.581 835.001C420.683 833.555 417.624 832.695 414.598 832.427C416.661 823.247 423.583 815.3 433.325 810.118Z" fill="#BA6159"/>
    <path fill-rule="evenodd" clip-rule="evenodd" d="M427.273 814.647C429.351 798.353 439.013 795.337 440.187 794.758C440.523 794.592 440.907 794.555 441.326 794.627L456.158 797.153C459.699 797.756 465.696 806.12 465.696 810.167L450.863 807.641C450.863 806.058 449.945 803.814 448.616 801.632C445.884 804.528 443.11 809.301 442.106 817.173L427.273 814.647Z" fill="white"/>
    <path fill-rule="evenodd" clip-rule="evenodd" d="M413.556 859.529C424.5 861.219 435.258 864.96 435.258 869.994C435.258 875.027 424.5 879.446 413.556 877.756C402.612 876.066 395.628 868.907 395.628 863.873C395.628 858.841 402.612 857.839 413.556 859.529Z" fill="#E64537"/>
    <path fill-rule="evenodd" clip-rule="evenodd" d="M121.216 660.152C127.039 660.152 131.76 664.712 131.76 670.336C131.76 675.96 127.039 680.52 121.216 680.52C115.392 680.52 110.671 675.96 110.671 670.336C110.671 664.712 115.392 660.152 121.216 660.152ZM121.216 643.745C124.83 643.745 127.761 646.575 127.761 650.067C127.761 653.559 124.83 656.389 121.216 656.389C117.601 656.389 114.67 653.559 114.67 650.067C114.67 646.575 117.601 643.745 121.216 643.745ZM448.642 516.935C454.465 516.935 459.186 521.494 459.186 527.118C459.186 532.743 454.465 537.302 448.642 537.302C442.819 537.302 438.098 532.743 438.098 527.118C438.098 521.494 442.819 516.935 448.642 516.935ZM448.642 500.527C452.257 500.527 455.188 503.358 455.188 506.849C455.188 510.341 452.257 513.171 448.642 513.171C445.027 513.171 442.096 510.341 442.096 506.849C442.096 503.358 445.027 500.527 448.642 500.527ZM532.998 675.094C538.821 675.094 543.541 670.535 543.541 664.911C543.541 659.286 538.821 654.727 532.998 654.727C527.174 654.727 522.453 659.286 522.453 664.911C522.453 670.535 527.174 675.094 532.998 675.094ZM532.998 691.502C536.612 691.502 539.543 688.671 539.543 685.18C539.543 681.688 536.612 678.857 532.998 678.857C529.382 678.857 526.452 681.688 526.452 685.18C526.452 688.671 529.382 691.502 532.998 691.502Z" fill="white"/>
    <path fill-rule="evenodd" clip-rule="evenodd" d="M217.783 810.542C228.922 810.542 237.952 813.092 237.952 816.238C237.952 819.384 228.922 821.934 217.783 821.934C206.644 821.934 197.614 819.384 197.614 816.238C197.614 813.092 206.644 810.542 217.783 810.542ZM566.028 774.087C571.728 774.087 576.348 775.336 576.348 776.878C576.348 778.419 571.728 779.669 566.028 779.669C560.328 779.669 555.708 778.419 555.708 776.878C555.708 775.336 560.328 774.087 566.028 774.087Z" fill="#99342C"/>
    <rect x="364.558" y="13" width="140" height="46.0443" rx="23.0221" transform="rotate(45 364.558 13)" fill="#EC9A74"/>
    <rect x="320.996" y="191" width="180" height="55.1491" rx="27.5745" transform="rotate(45 320.996 191)" fill="#EC9A74"/>
    <rect x="97.8247" y="174.418" width="130" height="49.2495" rx="24.6248" transform="rotate(45 97.8247 174.418)" fill="#EC9A74"/>
    <rect x="139.201" y="-8.66528" width="100" height="45.5388" rx="22.7694" transform="rotate(45 139.201 -8.66528)" fill="#EC9A74"/>
</svg>
