<svg width="50" height="50" viewBox="0 0 50 50" fill="none" xmlns="http://www.w3.org/2000/svg">
    <path d="M18.1457 16.0625L22.9165 11.2708V31.25C22.9165 31.8025 23.136 32.3324 23.5267 32.7231C23.9174 33.1138 24.4473 33.3333 24.9998 33.3333C25.5524 33.3333 26.0823 33.1138 26.473 32.7231C26.8637 32.3324 27.0832 31.8025 27.0832 31.25V11.2708L31.854 16.0625C32.0477 16.2578 32.2781 16.4128 32.532 16.5185C32.7858 16.6243 33.0581 16.6787 33.3332 16.6787C33.6082 16.6787 33.8805 16.6243 34.1344 16.5185C34.3882 16.4128 34.6187 16.2578 34.8123 16.0625C35.0076 15.8688 35.1626 15.6384 35.2684 15.3845C35.3741 15.1307 35.4286 14.8584 35.4286 14.5833C35.4286 14.3083 35.3741 14.036 35.2684 13.7821C35.1626 13.5283 35.0076 13.2978 34.8123 13.1042L26.479 4.77083C26.2809 4.58117 26.0472 4.43249 25.7915 4.33333C25.2843 4.12496 24.7154 4.12496 24.2082 4.33333C23.9524 4.43249 23.7188 4.58117 23.5207 4.77083L15.1873 13.1042C14.9931 13.2984 14.839 13.529 14.7339 13.7828C14.6288 14.0366 14.5746 14.3086 14.5746 14.5833C14.5746 14.858 14.6288 15.1301 14.7339 15.3839C14.839 15.6376 14.9931 15.8683 15.1873 16.0625C15.3816 16.2567 15.6122 16.4108 15.866 16.516C16.1198 16.6211 16.3918 16.6752 16.6665 16.6752C16.9412 16.6752 17.2132 16.6211 17.467 16.516C17.7208 16.4108 17.9514 16.2567 18.1457 16.0625ZM43.7498 25C43.1973 25 42.6674 25.2195 42.2767 25.6102C41.886 26.0009 41.6665 26.5308 41.6665 27.0833V39.5833C41.6665 40.1359 41.447 40.6658 41.0563 41.0565C40.6656 41.4472 40.1357 41.6667 39.5832 41.6667H10.4165C9.86397 41.6667 9.33407 41.4472 8.94337 41.0565C8.55266 40.6658 8.33317 40.1359 8.33317 39.5833V27.0833C8.33317 26.5308 8.11368 26.0009 7.72298 25.6102C7.33228 25.2195 6.80237 25 6.24984 25C5.6973 25 5.1674 25.2195 4.7767 25.6102C4.386 26.0009 4.1665 26.5308 4.1665 27.0833V39.5833C4.1665 41.2409 4.82498 42.8307 5.99709 44.0028C7.16919 45.1749 8.7589 45.8333 10.4165 45.8333H39.5832C41.2408 45.8333 42.8305 45.1749 44.0026 44.0028C45.1747 42.8307 45.8332 41.2409 45.8332 39.5833V27.0833C45.8332 26.5308 45.6137 26.0009 45.223 25.6102C44.8323 25.2195 44.3024 25 43.7498 25Z" fill="#833D37"/>
</svg>
